<svg xmlns:xlink="http://www.w3.org/1999/xlink" xmlns="http://www.w3.org/2000/svg" class="icon-20" width="20"  height="20" ><defs><symbol id="rytArrow-icon" viewBox="0 0 20 20" fill="none" xmlns="http://www.w3.org/2000/svg">
        <path d="M8.95458 3.08399L9.82046 2.2168C10.1871 1.84961 10.78 1.84961 11.1427 2.2168L18.725 9.80664C19.0917 10.1738 19.0917 10.7676 18.725 11.1309L11.1427 18.7246C10.7761 19.0918 10.1832 19.0918 9.82047 18.7246L8.95458 17.8574C8.58405 17.4863 8.59185 16.8809 8.97018 16.5176L13.6701 12.0332L2.46046 12.0332C1.94171 12.0332 1.52437 11.6152 1.52437 11.0957L1.52437 9.84571C1.52437 9.32617 1.94171 8.90821 2.46046 8.90821L13.6701 8.9082L8.97018 4.42383C8.58795 4.06055 8.58015 3.45508 8.95458 3.08399Z" fill="currentColor"></path>
        </symbol></defs><use xlink:href="#rytArrow-icon"></use></svg>