<svg xmlns:xlink="http://www.w3.org/1999/xlink" xmlns="http://www.w3.org/2000/svg" class="icon-20" width="21"  height="20" ><defs><symbol id="tiny-arrow-icon" viewBox="0 0 21 20" fill="none" xmlns="http://www.w3.org/2000/svg">
        <path d="M15.424 9.99608L12.3355 13.3275C12.2812 13.3858 12.2381 13.455 12.2086 13.5314C12.1792 13.6077 12.1641 13.6895 12.1641 13.7722C12.1641 13.8548 12.1792 13.9367 12.2086 14.013C12.2381 14.0893 12.2812 14.1586 12.3355 14.2168C12.4456 14.3341 12.594 14.3999 12.7486 14.3999C12.9033 14.3999 13.0517 14.3341 13.1618 14.2168L16.6609 10.4421C16.7667 10.3275 16.8275 10.1732 16.8306 10.0115C16.8337 9.84971 16.779 9.69289 16.6777 9.57361L13.1643 5.77266C13.054 5.65984 12.9073 5.59788 12.7554 5.59995C12.6035 5.60203 12.4583 5.66797 12.3507 5.78376C12.2431 5.89955 12.1816 6.05607 12.1792 6.22006C12.1769 6.38405 12.2338 6.54257 12.338 6.66195L15.424 9.99608Z" fill="white" stroke="white" stroke-width="0.5"></path>
        <path opacity="0.55" d="M8.25702 9.99608L5.16852 13.3275C5.11419 13.3858 5.07107 13.455 5.04164 13.5314C5.01222 13.6077 4.99707 13.6895 4.99707 13.7722C4.99707 13.8548 5.01222 13.9367 5.04164 14.013C5.07107 14.0893 5.11419 14.1586 5.16852 14.2168C5.27856 14.3341 5.42699 14.3999 5.58165 14.3999C5.7363 14.3999 5.88472 14.3341 5.99477 14.2168L9.49393 10.4421C9.59971 10.3275 9.66048 10.1732 9.66361 10.0115C9.66674 9.84971 9.61198 9.69289 9.51072 9.57361L5.99727 5.77266C5.887 5.65984 5.74033 5.59788 5.58842 5.59995C5.43651 5.60203 5.29132 5.66797 5.18374 5.78376C5.07615 5.89955 5.01463 6.05607 5.01225 6.22006C5.00987 6.38405 5.06683 6.54257 5.17101 6.66195L8.25702 9.99608Z" fill="white" stroke="white" stroke-width="0.5"></path>
        </symbol></defs><use xlink:href="#tiny-arrow-icon"></use></svg>