<svg xmlns:xlink="http://www.w3.org/1999/xlink" xmlns="http://www.w3.org/2000/svg" class="icon-20" width="20"  height="20" ><defs><symbol id="lftArrow-icon" viewBox="0 0 20 20" fill="none" xmlns="http://www.w3.org/2000/svg">
        <path d="M11.0454 16.916L10.1795 17.7832C9.8129 18.1504 9.22004 18.1504 8.85731 17.7832L1.27498 10.1934C0.908341 9.82617 0.908341 9.23242 1.27498 8.86914L8.85731 1.27539C9.22394 0.908203 9.8168 0.908203 10.1795 1.27539L11.0454 2.14258C11.416 2.51367 11.4082 3.11914 11.0298 3.48242L6.32986 7.9668H17.5395C18.0583 7.9668 18.4756 8.38477 18.4756 8.9043V10.1543C18.4756 10.6738 18.0583 11.0918 17.5395 11.0918H6.32986L11.0298 15.5762C11.4121 15.9395 11.4199 16.5449 11.0454 16.916Z" fill="currentColor"></path>
        </symbol></defs><use xlink:href="#lftArrow-icon"></use></svg>