<svg xmlns:xlink="http://www.w3.org/1999/xlink" xmlns="http://www.w3.org/2000/svg" class="icon-40 icon-32-sm mr-16 d-none-sm co-primary" width="40"  height="40" ><defs><symbol id="cowry-icon" viewBox="0 0 40 40" fill="none" xmlns="http://www.w3.org/2000/svg">
        <circle cx="20" cy="20" r="20" fill="currentColor" opacity="0.1"></circle>
        <path d="M20 30C25.5228 30 30 25.5228 30 20C30 14.4772 25.5228 10 20 10C14.4772 10 10 14.4772 10 20C10 25.5228 14.4772 30 20 30Z" fill="currentColor" stroke="currentColor"></path>
        <path d="M20 28C24.4183 28 28 24.4183 28 20C28 15.5817 24.4183 12 20 12C15.5817 12 12 15.5817 12 20C12 24.4183 15.5817 28 20 28Z" stroke="#ffffff"></path>
        <path d="M22.1779 17.654C22.0938 17.8004 21.9848 17.931 21.8559 18.04C21.7894 18.0957 21.7188 18.1465 21.6449 18.192C21.6069 18.215 21.5679 18.237 21.5289 18.257L21.4659 18.287L21.4549 18.296H21.4339L21.4139 18.304C21.3611 18.325 21.3133 18.357 21.2739 18.398C21.237 18.4362 21.2102 18.4829 21.1959 18.534C21.1892 18.557 21.1858 18.5809 21.1859 18.605C21.1845 18.6163 21.1845 18.6277 21.1859 18.639V18.676C21.2157 18.7746 21.2108 18.8805 21.1719 18.976C21.132 19.0713 21.0709 19.1563 20.9933 19.2246C20.9156 19.2928 20.8235 19.3425 20.7239 19.37C20.6416 19.394 20.5683 19.4416 20.5129 19.507C20.4895 19.533 20.4723 19.564 20.4625 19.5975C20.4526 19.6311 20.4504 19.6664 20.4559 19.701V19.717C20.4566 19.7266 20.4566 19.7363 20.4559 19.746C20.4579 19.7656 20.4579 19.7854 20.4559 19.805C20.4575 19.8457 20.4531 19.8865 20.4429 19.926C20.4252 20.0021 20.3911 20.0734 20.3429 20.135C20.2418 20.2596 20.1044 20.3497 19.9499 20.393L19.9139 20.404L19.8829 20.415C19.8237 20.4383 19.7707 20.4749 19.7279 20.522C19.7029 20.5468 19.684 20.577 19.6726 20.6103C19.6611 20.6436 19.6575 20.679 19.6619 20.714V20.727C19.6626 20.737 19.6626 20.747 19.6619 20.757C19.6639 20.7769 19.6639 20.797 19.6619 20.817C19.6633 20.8576 19.6596 20.8982 19.6509 20.938C19.6328 21.0152 19.5987 21.0877 19.5509 21.151C19.5017 21.2154 19.4414 21.2706 19.3729 21.314C19.3384 21.3368 19.3019 21.3566 19.2639 21.373L19.2049 21.396L19.1759 21.406L19.1509 21.413C19.0791 21.4359 19.0161 21.4806 18.9709 21.541C18.9483 21.5672 18.9319 21.5981 18.9229 21.6316C18.9139 21.665 18.9126 21.7 18.9189 21.734L18.9289 21.774C18.9329 21.7927 18.9356 21.8118 18.9369 21.831C18.9411 21.8682 18.9411 21.9058 18.9369 21.943C18.9264 22.0175 18.9013 22.0892 18.8629 22.154C18.7789 22.292 18.6484 22.3955 18.4949 22.446C18.4832 22.4499 18.4711 22.4526 18.4589 22.454H18.4489C18.4348 22.4589 18.4211 22.465 18.4079 22.472C18.3821 22.4866 18.3586 22.5048 18.3379 22.526C18.2967 22.5696 18.2695 22.6247 18.2599 22.684C18.2557 22.7138 18.2557 22.7441 18.2599 22.774V22.796C18.2606 22.7996 18.2606 22.8033 18.2599 22.807V22.823C18.268 22.8481 18.274 22.8738 18.2779 22.9C18.293 23.0051 18.2788 23.1124 18.2369 23.21C18.1944 23.3157 18.1208 23.406 18.0259 23.469L17.9849 23.492L17.9439 23.511L17.9129 23.522L17.8919 23.533C17.8643 23.5482 17.8395 23.5681 17.8189 23.592C17.7754 23.6451 17.7496 23.7105 17.7449 23.779C17.7382 23.8512 17.7492 23.9239 17.7769 23.991V24.001C17.7803 24.012 17.7815 24.0236 17.7802 24.0351C17.7789 24.0466 17.7752 24.0577 17.7693 24.0677C17.7635 24.0777 17.7556 24.0863 17.7463 24.0931C17.7369 24.0998 17.7262 24.1046 17.7149 24.107C17.6894 24.1147 17.6619 24.1126 17.6379 24.101C17.6169 24.09 17.5959 24.079 17.5759 24.067C17.5652 24.0576 17.5555 24.0472 17.5469 24.036L17.5259 24.011L17.4919 23.966C17.4709 23.936 17.4499 23.906 17.4299 23.873C17.3906 23.8094 17.3572 23.7425 17.3299 23.673C17.3001 23.6008 17.2812 23.5247 17.2739 23.447C17.2728 23.403 17.2785 23.3592 17.2909 23.317C17.3033 23.2638 17.3299 23.2151 17.3679 23.176L17.3779 23.166V23.158C17.3827 23.1502 17.387 23.1422 17.3909 23.134C17.3976 23.1138 17.4027 23.093 17.4059 23.072C17.4115 23.0231 17.4115 22.9738 17.4059 22.925C17.3988 22.8737 17.3861 22.8234 17.3679 22.775C17.3596 22.7507 17.3499 22.727 17.3389 22.704L17.3219 22.67L17.3119 22.653L17.3009 22.634C17.2247 22.5097 17.1917 22.3639 17.2069 22.219C17.217 22.1361 17.2483 22.0572 17.2979 21.99C17.3263 21.9521 17.36 21.9184 17.3979 21.89C17.4178 21.8751 17.4385 21.8614 17.4599 21.849L17.4939 21.833L17.5189 21.821H17.5299C17.5921 21.7836 17.6386 21.725 17.6609 21.656C17.6757 21.6204 17.6841 21.5825 17.6859 21.544C17.688 21.526 17.688 21.5079 17.6859 21.49C17.6867 21.481 17.6867 21.4719 17.6859 21.463V21.442C17.6871 21.4321 17.6846 21.4221 17.6789 21.414C17.6637 21.3376 17.6675 21.2586 17.6899 21.184C17.7117 21.108 17.7503 21.038 17.8029 20.979C17.9083 20.8595 18.048 20.7753 18.2029 20.738L18.2279 20.731H18.2449L18.2799 20.72C18.302 20.7117 18.3234 20.7017 18.3439 20.69C18.3862 20.6687 18.425 20.6411 18.4589 20.608C18.4889 20.5796 18.513 20.5456 18.5299 20.508C18.5361 20.4932 18.5408 20.4777 18.5439 20.462V20.421C18.5432 20.4093 18.5432 20.3976 18.5439 20.386C18.5506 20.2984 18.5826 20.2147 18.6359 20.145C18.6854 20.0785 18.7455 20.0208 18.8139 19.974C18.9438 19.8858 19.0911 19.8265 19.2459 19.8H19.2549C19.3478 19.7781 19.435 19.7369 19.5109 19.679C19.5461 19.6547 19.5768 19.6246 19.6019 19.59C19.6104 19.5769 19.6171 19.5628 19.6219 19.548C19.6232 19.542 19.6232 19.5359 19.6219 19.53C19.6224 19.5273 19.6224 19.5246 19.6219 19.522V19.496C19.6315 19.4077 19.6662 19.3241 19.7219 19.255C19.7711 19.1911 19.8302 19.1354 19.8969 19.09C20.0275 19.0001 20.1752 18.9381 20.3309 18.908C20.4509 18.8885 20.5621 18.8331 20.6499 18.749C20.681 18.7193 20.7017 18.6803 20.7089 18.638V18.626V18.615C20.702 18.5382 20.7155 18.4609 20.7479 18.391C20.7896 18.3027 20.8496 18.2243 20.9239 18.161C20.9969 18.0968 21.08 18.0451 21.1699 18.008L21.2399 17.981L21.2749 17.97H21.2829C21.3119 17.958 21.3459 17.943 21.3769 17.928C21.4394 17.896 21.4996 17.8596 21.5569 17.819C21.669 17.7383 21.7672 17.64 21.8479 17.528C21.9254 17.4181 21.9832 17.2956 22.0189 17.166C22.0905 16.8999 22.0988 16.6208 22.0429 16.351C22.0398 16.3423 22.0386 16.3331 22.0393 16.324C22.04 16.3148 22.0426 16.3059 22.0469 16.2978C22.0512 16.2897 22.0572 16.2826 22.0644 16.277C22.0717 16.2713 22.08 16.2672 22.0889 16.265C22.107 16.2572 22.1274 16.2566 22.146 16.2633C22.1645 16.27 22.1799 16.2834 22.1889 16.301V16.311C22.2524 16.4479 22.2994 16.5919 22.3289 16.74C22.3603 16.8895 22.3671 17.0432 22.3489 17.195C22.3452 17.2359 22.3379 17.2764 22.3269 17.316C22.319 17.3552 22.3076 17.3937 22.2929 17.431C22.2669 17.5084 22.2334 17.5831 22.1929 17.654H22.1779ZM23.3119 17.087C23.1358 16.698 22.9044 16.3366 22.6249 16.014C22.5351 15.9035 22.4375 15.7996 22.3329 15.703C22.2431 15.7353 22.1658 15.7951 22.1119 15.874C22.058 15.9528 22.0304 16.0465 22.0329 16.142C21.9967 16.008 21.9328 15.8832 21.8452 15.7755C21.7577 15.6679 21.6486 15.5798 21.5249 15.517C20.5776 15.4681 19.6356 15.6872 18.8072 16.1492C17.9787 16.6112 17.2972 17.2973 16.8409 18.129C15.5259 20.541 16.7749 24.209 17.4009 24.45C18.0269 24.691 21.9909 23.018 23.2269 20.581C23.5216 20.0477 23.684 19.4515 23.7004 18.8424C23.7167 18.2334 23.5866 17.6293 23.3209 17.081" fill="#ffffff"></path>
        </symbol></defs><use xlink:href="#cowry-icon"></use></svg>