<svg xmlns:xlink="http://www.w3.org/1999/xlink" xmlns="http://www.w3.org/2000/svg" width="403" height="259" viewBox="0 0 403 259" fill="none">
<g style="mix-blend-mode:luminosity" opacity="0.98">
<rect y="-0.00012207" width="402.326" height="258.811" rx="20" fill="#121212"/>
</g>
<mask id="mask0" style="mask-type:alpha" maskUnits="userSpaceOnUse" x="0" y="0" width="403" height="259">
<rect x="0.808594" y="0.000854492" width="401.52" height="258.811" rx="20" fill="#323232"/>
</mask>
<g mask="url(#mask0)">
<g opacity="0.56">
<path d="M200.267 346.425C320.168 346.425 417.366 249.286 417.367 129.46C417.367 9.63319 320.168 -87.5053 200.267 -87.5054C80.3666 -87.5054 -16.832 9.63315 -16.832 129.46C-16.8321 249.286 80.3666 346.425 200.267 346.425Z" stroke="#323232" stroke-width="0.5"/>
<path d="M200.27 340.286C316.779 340.286 411.228 245.896 411.228 129.459C411.228 13.022 316.779 -81.3686 200.27 -81.3686C83.7615 -81.3686 -10.6875 13.022 -10.6875 129.459C-10.6875 245.896 83.7615 340.286 200.27 340.286Z" stroke="#323232" stroke-width="0.5"/>
<path d="M200.27 334.154C313.387 334.154 405.086 242.512 405.086 129.465C405.086 16.4175 313.387 -75.2252 200.27 -75.2252C87.1526 -75.2252 -4.54688 16.4175 -4.54689 129.464C-4.5469 242.512 87.1525 334.154 200.27 334.154Z" stroke="#323232" stroke-width="0.5"/>
<path d="M200.265 328.009C309.99 328.009 398.94 239.115 398.94 129.457C398.94 19.8 309.99 -69.0948 200.265 -69.0948C90.5397 -69.0948 1.58984 19.8 1.58983 129.457C1.58982 239.115 90.5396 328.009 200.265 328.009Z" stroke="#323232" stroke-width="0.5"/>
<path d="M200.264 321.872C306.597 321.872 392.798 235.725 392.798 129.458C392.798 23.1899 306.597 -62.957 200.264 -62.957C93.9307 -62.957 7.73046 23.1899 7.73045 129.457C7.73044 235.725 93.9307 321.872 200.264 321.872Z" stroke="#323232" stroke-width="0.5"/>
<path d="M200.267 315.738C303.209 315.738 386.659 232.339 386.659 129.461C386.659 26.5835 303.209 -56.8155 200.267 -56.8155C97.3256 -56.8155 13.875 26.5834 13.875 129.461C13.875 232.339 97.3256 315.738 200.267 315.738Z" stroke="#323232" stroke-width="0.5"/>
<path d="M200.274 309.597C299.824 309.597 380.525 228.946 380.525 129.458C380.525 29.9697 299.824 -50.6814 200.274 -50.6814C100.724 -50.6814 20.0234 29.9697 20.0234 129.458C20.0234 228.946 100.724 309.597 200.274 309.597Z" stroke="#323232" stroke-width="0.5"/>
<path d="M200.266 303.46C296.423 303.46 374.375 225.557 374.375 129.458C374.375 33.3596 296.424 -44.5436 200.266 -44.5436C104.108 -44.5436 26.1562 33.3596 26.1562 129.458C26.1562 225.556 104.108 303.46 200.266 303.46Z" stroke="#323232" stroke-width="0.5"/>
<path d="M200.269 297.324C293.035 297.324 368.236 222.169 368.237 129.46C368.237 36.7514 293.035 -38.4039 200.269 -38.4039C107.503 -38.4039 32.3008 36.7513 32.3008 129.46C32.3008 222.169 107.503 297.324 200.269 297.324Z" stroke="#323232" stroke-width="0.5"/>
<path d="M200.268 291.189C289.642 291.189 362.094 218.781 362.094 129.462C362.094 40.1434 289.642 -32.264 200.268 -32.264C110.894 -32.264 38.4414 40.1433 38.4414 129.462C38.4414 218.781 110.894 291.189 200.268 291.189Z" stroke="#323232" stroke-width="0.5"/>
<path d="M200.271 285.049C286.253 285.049 355.956 215.39 355.956 129.461C355.956 43.5313 286.253 -26.1282 200.271 -26.1282C114.289 -26.1282 44.5859 43.5313 44.5859 129.461C44.5859 215.39 114.288 285.049 200.271 285.049Z" stroke="#323232" stroke-width="0.5"/>
<path d="M200.274 278.91C282.865 278.91 349.818 211.998 349.818 129.459C349.818 46.9191 282.865 -19.9924 200.274 -19.9924C117.683 -19.9924 50.7305 46.9191 50.7305 129.459C50.7304 211.998 117.683 278.91 200.274 278.91Z" stroke="#323232" stroke-width="0.5"/>
<path d="M200.262 272.774C279.46 272.774 343.664 208.611 343.664 129.461C343.664 50.3111 279.46 -13.8525 200.262 -13.8525C121.063 -13.8525 56.8594 50.3111 56.8594 129.461C56.8594 208.611 121.063 272.774 200.262 272.774Z" stroke="#323232" stroke-width="0.5"/>
<path d="M200.261 266.637C276.068 266.637 337.522 205.221 337.522 129.461C337.522 53.701 276.068 -7.7147 200.261 -7.71471C124.454 -7.71472 63 53.701 63 129.461C63 205.221 124.454 266.637 200.261 266.637Z" stroke="#323232" stroke-width="0.5"/>
<path d="M200.268 260.498C272.683 260.498 331.387 201.83 331.387 129.459C331.387 57.089 272.683 -1.57884 200.268 -1.57885C127.853 -1.57885 69.1484 57.089 69.1484 129.459C69.1484 201.83 127.853 260.498 200.268 260.498Z" stroke="#323232" stroke-width="0.5"/>
<path d="M200.271 254.36C269.294 254.36 325.249 198.44 325.249 129.46C325.249 60.4789 269.294 4.55898 200.271 4.55897C131.247 4.55896 75.293 60.4789 75.293 129.46C75.293 198.44 131.247 254.36 200.271 254.36Z" stroke="#323232" stroke-width="0.5"/>
<path d="M200.268 246.998C265.222 246.998 317.877 194.375 317.877 129.462C317.877 64.5491 265.222 11.9267 200.268 11.9266C135.315 11.9266 82.6602 64.5491 82.6601 129.462C82.6601 194.375 135.315 246.998 200.268 246.998Z" stroke="#323232" stroke-width="0.5"/>
<path d="M200.264 240.858C261.825 240.858 311.731 190.984 311.731 129.46C311.731 67.9372 261.825 18.0626 200.264 18.0626C138.702 18.0626 88.7969 67.9371 88.7969 129.46C88.7969 190.984 138.702 240.858 200.264 240.858Z" stroke="#323232" stroke-width="0.5"/>
<path d="M200.263 234.721C258.432 234.721 305.588 187.594 305.588 129.461C305.588 71.3271 258.432 24.2005 200.263 24.2004C142.093 24.2004 94.9375 71.3271 94.9375 129.461C94.9375 187.594 142.093 234.721 200.263 234.721Z" stroke="#323232" stroke-width="0.5"/>
<path d="M200.27 228.582C255.048 228.582 299.454 184.203 299.454 129.459C299.454 74.7152 255.048 30.3364 200.27 30.3364C145.492 30.3364 101.086 74.7151 101.086 129.459C101.086 184.203 145.492 228.582 200.27 228.582Z" stroke="#323232" stroke-width="0.5"/>
<path d="M200.269 222.446C251.655 222.446 293.312 180.815 293.312 129.461C293.312 78.107 251.655 36.4762 200.269 36.4762C148.883 36.4762 107.227 78.107 107.227 129.461C107.227 180.815 148.883 222.446 200.269 222.446Z" stroke="#323232" stroke-width="0.5"/>
<path d="M200.264 216.308C248.259 216.308 287.166 177.426 287.166 129.461C287.166 81.4967 248.259 42.6138 200.264 42.6138C152.27 42.6138 113.363 81.4967 113.363 129.461C113.363 177.426 152.27 216.308 200.264 216.308Z" stroke="#323232" stroke-width="0.5"/>
<path d="M200.268 210.168C244.87 210.168 281.027 174.033 281.027 129.458C281.027 84.883 244.87 48.7481 200.268 48.7481C155.665 48.748 119.508 84.883 119.508 129.458C119.508 174.033 155.665 210.168 200.268 210.168Z" stroke="#323232" stroke-width="0.5"/>
<path d="M200.271 204.034C241.481 204.034 274.889 170.647 274.889 129.462C274.889 88.2766 241.481 54.8895 200.271 54.8895C159.06 54.8895 125.652 88.2766 125.652 129.462C125.652 170.647 159.06 204.034 200.271 204.034Z" stroke="#323232" stroke-width="0.5"/>
<path d="M200.266 197.893C238.085 197.893 268.743 167.253 268.743 129.458C268.743 91.6629 238.085 61.0237 200.266 61.0237C162.447 61.0237 131.789 91.6628 131.789 129.458C131.789 167.253 162.447 197.893 200.266 197.893Z" stroke="#323232" stroke-width="0.5"/>
<path d="M200.265 191.761C234.692 191.761 262.601 163.87 262.601 129.464C262.601 95.0584 234.692 67.1671 200.265 67.1671C165.838 67.1671 137.93 95.0584 137.93 129.464C137.93 163.87 165.838 191.761 200.265 191.761Z" stroke="#323232" stroke-width="0.5"/>
<path d="M200.268 185.62C231.303 185.62 256.462 160.476 256.462 129.46C256.462 98.4444 231.303 73.301 200.268 73.301C169.233 73.301 144.074 98.4444 144.074 129.46C144.074 160.476 169.233 185.62 200.268 185.62Z" stroke="#323232" stroke-width="0.5"/>
<path d="M200.01 179.422C227.653 179.422 250.062 157.026 250.062 129.4C250.062 101.774 227.653 79.3785 200.01 79.3785C172.366 79.3785 149.957 101.774 149.957 129.4C149.957 157.026 172.366 179.422 200.01 179.422Z" stroke="#323232" stroke-width="0.5"/>
<path d="M199.958 173.993C224.449 173.993 244.302 154.139 244.302 129.648C244.302 105.158 224.449 85.3038 199.958 85.3038C175.467 85.3038 155.613 105.158 155.613 129.648C155.613 154.139 175.467 173.993 199.958 173.993Z" stroke="#323232" stroke-width="0.5"/>
</g>
<path d="M239.004 129.3C239.004 121.587 236.717 114.046 232.431 107.633C228.146 101.219 222.055 96.2205 214.929 93.2686C207.802 90.3168 199.961 89.5445 192.395 91.0493C184.83 92.5541 177.881 96.2685 172.427 101.723C166.973 107.177 163.258 114.126 161.753 121.691C160.248 129.257 161.021 137.098 163.973 144.225C166.924 151.351 171.923 157.442 178.337 161.727C184.75 166.013 192.29 168.3 200.004 168.3C210.347 168.3 220.267 164.191 227.581 156.877C234.895 149.563 239.004 139.643 239.004 129.3Z" fill="#F2761B"/>
<path d="M211.605 115.087C211.179 115.959 210.608 116.752 209.919 117.434C209.574 117.77 209.203 118.079 208.811 118.358C208.613 118.498 208.408 118.63 208.203 118.754L207.873 118.938L207.792 118.982H207.741H207.682L207.579 119.033C207.295 119.167 207.045 119.362 206.846 119.605C206.648 119.846 206.507 120.13 206.435 120.434C206.4 120.575 206.383 120.72 206.384 120.866C206.377 120.935 206.377 121.003 206.384 121.072C206.384 121.072 206.384 121.138 206.384 121.174V121.299C206.536 121.895 206.511 122.522 206.311 123.103C206.128 123.655 205.822 124.158 205.415 124.574C205.008 124.99 204.512 125.307 203.964 125.501C203.517 125.659 203.131 125.951 202.857 126.337C202.731 126.505 202.64 126.695 202.589 126.898C202.537 127.1 202.526 127.311 202.556 127.518V127.613C202.559 127.672 202.559 127.731 202.556 127.789C202.566 127.909 202.566 128.029 202.556 128.149C202.565 128.395 202.543 128.641 202.49 128.882C202.397 129.336 202.215 129.767 201.954 130.151C201.456 130.884 200.733 131.435 199.894 131.72L199.703 131.786L199.542 131.852C199.222 132.001 198.943 132.225 198.728 132.505C198.594 132.665 198.495 132.852 198.435 133.052C198.376 133.253 198.358 133.463 198.383 133.671V133.751C198.387 133.812 198.387 133.874 198.383 133.935C198.394 134.057 198.394 134.179 198.383 134.301C198.39 134.547 198.37 134.793 198.324 135.035C198.228 135.498 198.044 135.939 197.782 136.333C197.532 136.715 197.217 137.051 196.85 137.323C196.671 137.46 196.48 137.581 196.278 137.682L195.97 137.822L195.816 137.88L195.684 137.924C195.293 138.074 194.961 138.347 194.738 138.702C194.618 138.87 194.532 139.06 194.486 139.261C194.439 139.463 194.433 139.671 194.467 139.875L194.518 140.117C194.54 140.231 194.555 140.346 194.562 140.462C194.584 140.688 194.584 140.917 194.562 141.144C194.509 141.591 194.377 142.025 194.174 142.427C193.768 143.233 193.082 143.864 192.245 144.202C192.184 144.227 192.12 144.244 192.054 144.253H192.003C191.929 144.284 191.858 144.321 191.79 144.363C191.653 144.455 191.529 144.566 191.423 144.693C191.201 144.969 191.059 145.302 191.013 145.654C190.991 145.836 190.991 146.021 191.013 146.204V146.343C191.016 146.365 191.016 146.387 191.013 146.409V146.504C191.056 146.658 191.088 146.815 191.108 146.974C191.188 147.61 191.115 148.256 190.895 148.859C190.688 149.481 190.303 150.029 189.788 150.435C189.72 150.486 189.649 150.532 189.575 150.575L189.363 150.692L189.201 150.758L189.091 150.824C188.944 150.92 188.815 151.042 188.71 151.183C188.478 151.519 188.343 151.912 188.321 152.32C188.286 152.757 188.344 153.197 188.49 153.611V153.669C188.53 153.798 188.519 153.937 188.459 154.057C188.398 154.177 188.294 154.27 188.167 154.315C188.101 154.338 188.031 154.347 187.962 154.341C187.892 154.334 187.825 154.313 187.764 154.278C187.654 154.212 187.544 154.146 187.441 154.073C187.384 154.014 187.332 153.95 187.287 153.882L187.177 153.728L187.001 153.457C186.891 153.273 186.781 153.09 186.679 152.892C186.468 152.506 186.289 152.104 186.143 151.689C185.987 151.247 185.888 150.786 185.85 150.318C185.844 150.051 185.873 149.785 185.938 149.526C186 149.211 186.138 148.916 186.341 148.668L186.393 148.609V148.558C186.417 148.51 186.439 148.461 186.459 148.411C186.495 148.289 186.522 148.164 186.539 148.037C186.569 147.74 186.569 147.44 186.539 147.142C186.503 146.834 186.437 146.529 186.341 146.233C186.298 146.086 186.246 145.942 186.187 145.8L186.099 145.595L186.048 145.492L185.989 145.375C185.587 144.599 185.416 143.723 185.498 142.852C185.547 142.357 185.71 141.88 185.975 141.459C186.117 141.236 186.29 141.033 186.488 140.858C186.591 140.768 186.698 140.685 186.811 140.608L186.987 140.513L187.119 140.44H187.177C187.516 140.194 187.76 139.839 187.867 139.435C187.945 139.216 187.99 138.986 187.999 138.753C188.01 138.643 188.01 138.533 187.999 138.423C188.003 138.369 188.003 138.315 187.999 138.262V138.137C187.999 138.078 187.999 138.02 187.962 137.968C187.882 137.502 187.902 137.025 188.021 136.567C188.131 136.115 188.333 135.691 188.615 135.321C189.141 134.612 189.886 134.096 190.734 133.854L190.866 133.81H190.954L191.137 133.744C191.255 133.693 191.368 133.632 191.475 133.561C191.701 133.428 191.904 133.259 192.076 133.062C192.235 132.891 192.362 132.692 192.45 132.475C192.483 132.385 192.508 132.292 192.524 132.197C192.524 132.153 192.524 132.116 192.524 132.079V131.947C192.52 131.876 192.52 131.805 192.524 131.735C192.556 131.212 192.722 130.707 193.008 130.268C193.259 129.872 193.573 129.52 193.939 129.227C194.6 128.7 195.377 128.338 196.205 128.171H196.278C196.776 128.033 197.235 127.782 197.62 127.437C197.809 127.284 197.97 127.101 198.097 126.894C198.141 126.813 198.176 126.727 198.2 126.638C198.207 126.601 198.207 126.564 198.2 126.528C198.203 126.511 198.203 126.493 198.2 126.476V126.3C198.241 125.777 198.415 125.272 198.706 124.834C198.957 124.453 199.266 124.114 199.622 123.829C200.286 123.292 201.064 122.913 201.896 122.722C202.544 122.591 203.132 122.251 203.568 121.754C203.735 121.564 203.842 121.329 203.876 121.079V120.998V120.932C203.84 120.468 203.91 120.001 204.081 119.568C204.291 119.044 204.606 118.567 205.005 118.168C205.378 117.784 205.815 117.469 206.296 117.236L206.663 117.075L206.846 117.009H206.89C207.044 116.935 207.22 116.847 207.381 116.752C207.713 116.557 208.029 116.336 208.327 116.092C208.927 115.588 209.442 114.992 209.853 114.325C210.264 113.643 210.566 112.9 210.747 112.125C211.123 110.497 211.166 108.811 210.872 107.167C210.838 107.066 210.845 106.955 210.89 106.859C210.935 106.762 211.015 106.686 211.114 106.646C211.21 106.61 211.315 106.613 211.409 106.654C211.502 106.696 211.575 106.772 211.613 106.866V106.925C211.948 107.767 212.194 108.642 212.346 109.536C212.51 110.448 212.545 111.379 212.449 112.301C212.449 112.535 212.376 112.77 212.332 113.034C212.288 113.298 212.229 113.503 212.156 113.731C212.013 114.198 211.829 114.652 211.605 115.087ZM217.472 111.641C216.571 109.313 215.36 107.118 213.872 105.114C213.405 104.448 212.893 103.816 212.339 103.222C211.84 103.459 211.423 103.84 211.141 104.315C210.859 104.791 210.724 105.339 210.755 105.891C210.589 105.112 210.268 104.373 209.81 103.721C209.353 103.068 208.769 102.514 208.093 102.092C208.093 102.092 191.856 100.325 183.54 117.977C176.646 132.644 183.195 154.945 186.473 156.412C189.751 157.879 210.535 147.707 217.018 132.886C220.604 124.702 219.885 117.148 217.509 111.619" fill="white"/>
<path d="M342.253 230.31C349.018 230.31 354.502 224.826 354.502 218.061C354.502 211.296 349.018 205.812 342.253 205.812C335.488 205.812 330.004 211.296 330.004 218.061C330.004 224.826 335.488 230.31 342.253 230.31Z" fill="#EE0005"/>
<path d="M357.472 230.31C364.237 230.31 369.721 224.826 369.721 218.061C369.721 211.296 364.237 205.812 357.472 205.812C350.707 205.812 345.223 211.296 345.223 218.061C345.223 224.826 350.707 230.31 357.472 230.31Z" fill="#F9A000"/>
<path d="M345.223 218.058C345.221 219.904 345.637 221.727 346.441 223.39C347.245 225.053 348.414 226.512 349.863 227.658C351.31 226.511 352.479 225.052 353.283 223.389C354.087 221.727 354.505 219.904 354.505 218.058C354.505 216.211 354.087 214.388 353.283 212.726C352.479 211.063 351.31 209.604 349.863 208.458C348.414 209.603 347.245 211.062 346.441 212.725C345.637 214.388 345.221 216.211 345.223 218.058Z" fill="#FF6300"/>
</g>
<path d="M38.9397 92.7401L72.2617 92.7401C75.5754 92.7401 78.2617 90.0538 78.2617 86.7401L78.2617 64.7401C78.2617 61.4264 75.5754 58.7401 72.2617 58.7401L38.9397 58.7401C35.626 58.7401 32.9397 61.4264 32.9397 64.7401L32.9397 86.7401C32.9397 90.0538 35.626 92.7401 38.9397 92.7401Z" fill="url(#paint0_linear)"/>
<path d="M38.9397 92.2401L72.2617 92.2401C75.2993 92.2401 77.7617 89.7777 77.7617 86.7401L77.7617 64.7401C77.7617 61.7025 75.2993 59.2401 72.2617 59.2401L38.9397 59.2401C35.9022 59.2401 33.4397 61.7025 33.4397 64.7401L33.4397 86.7401C33.4397 89.7777 35.9022 92.2401 38.9397 92.2401Z" stroke="black" stroke-opacity="0.4" stroke-miterlimit="10"/>
<path d="M49.9414 69.7401L39.9414 69.7401C38.8805 69.7401 37.8631 69.3187 37.113 68.5685C36.3628 67.8184 35.9414 66.801 35.9414 65.7401C35.9414 64.6792 36.3628 63.6618 37.113 62.9117C37.8631 62.1615 38.8805 61.7401 39.9414 61.7401L49.9414 61.7401C51.0023 61.7401 52.0197 62.1615 52.7698 62.9117C53.52 63.6618 53.9414 64.6792 53.9414 65.7401C53.9414 66.801 53.52 67.8184 52.7698 68.5685C52.0197 69.3187 51.0023 69.7401 49.9414 69.7401ZM39.9674 62.4071C39.0834 62.4071 38.2357 62.7583 37.6106 63.3833C36.9856 64.0084 36.6344 64.8561 36.6344 65.7401C36.6344 66.6241 36.9856 67.4718 37.6106 68.0969C38.2357 68.722 39.0834 69.0731 39.9674 69.0731L49.9164 69.0731C50.8004 69.0731 51.6481 68.722 52.2732 68.0969C52.8983 67.4718 53.2494 66.6241 53.2494 65.7401C53.2494 64.8561 52.8983 64.0084 52.2732 63.3833C51.6481 62.7583 50.8004 62.4071 49.9164 62.4071L39.9674 62.4071Z" fill="#0D0D0D"/>
<path d="M49.9418 69.7402C52.1472 69.7402 53.9414 67.946 53.9414 65.7406C53.9414 63.5347 52.1472 61.7401 49.9418 61.7401L39.9419 61.7401C37.736 61.7401 35.9414 63.5347 35.9414 65.7406C35.9414 67.946 37.736 69.7402 39.9419 69.7402L49.9418 69.7402ZM39.9671 62.407L49.9157 62.407C51.7539 62.407 53.2493 63.9025 53.2493 65.7406C53.2493 67.5783 51.7539 69.0733 49.9157 69.0733L39.9671 69.0733C38.129 69.0733 36.6335 67.5783 36.6335 65.7406C36.6335 63.9025 38.129 62.407 39.9671 62.407ZM49.9418 70.2402L39.9419 70.2402C37.4603 70.2402 35.4414 68.2217 35.4414 65.7406C35.4414 63.259 37.4603 61.2401 39.9419 61.2401L49.9418 61.2401C52.4229 61.2401 54.4414 63.259 54.4414 65.7406C54.4414 68.2217 52.4229 70.2402 49.9418 70.2402ZM39.9671 62.907C38.4047 62.907 37.1335 64.1782 37.1335 65.7406C37.1335 67.3026 38.4047 68.5733 39.9671 68.5733L49.9157 68.5733C51.4782 68.5733 52.7493 67.3026 52.7493 65.7406C52.7493 64.1782 51.4782 62.907 49.9157 62.907L39.9671 62.907Z" fill="black" fill-opacity="0.08"/>
<path d="M71.2617 69.7401L61.2617 69.7401C60.2009 69.7401 59.1834 69.3187 58.4333 68.5685C57.6831 67.8184 57.2617 66.801 57.2617 65.7401C57.2617 64.6792 57.6831 63.6618 58.4333 62.9117C59.1834 62.1615 60.2009 61.7401 61.2617 61.7401L71.2617 61.7401C72.3226 61.7401 73.34 62.1615 74.0901 62.9117C74.8403 63.6618 75.2617 64.6792 75.2617 65.7401C75.2617 66.801 74.8403 67.8184 74.0901 68.5685C73.34 69.3187 72.3226 69.7401 71.2617 69.7401ZM61.2877 62.4071C60.4038 62.4071 59.556 62.7583 58.9309 63.3833C58.3059 64.0084 57.9547 64.8561 57.9547 65.7401C57.9547 66.6241 58.3059 67.4718 58.9309 68.0969C59.556 68.722 60.4038 69.0731 61.2877 69.0731L71.2367 69.0731C72.1207 69.0731 72.9684 68.722 73.5935 68.0969C74.2186 67.4718 74.5697 66.6241 74.5697 65.7401C74.5697 64.8561 74.2186 64.0084 73.5935 63.3833C72.9684 62.7583 72.1207 62.4071 71.2367 62.4071L61.2877 62.4071Z" fill="#0D0D0D"/>
<path d="M71.2621 69.7402C73.4675 69.7402 75.2617 67.946 75.2617 65.7406C75.2617 63.5347 73.4675 61.7401 71.2621 61.7401L61.2622 61.7401C59.0563 61.7401 57.2617 63.5347 57.2617 65.7406C57.2617 67.946 59.0563 69.7402 61.2622 69.7402L71.2621 69.7402ZM61.2874 62.407L71.236 62.407C73.0742 62.407 74.5696 63.9025 74.5696 65.7406C74.5696 67.5783 73.0742 69.0733 71.236 69.0733L61.2874 69.0733C59.4493 69.0733 57.9538 67.5783 57.9538 65.7406C57.9538 63.9025 59.4493 62.407 61.2874 62.407ZM71.2621 70.2402L61.2622 70.2402C58.7806 70.2402 56.7617 68.2217 56.7617 65.7406C56.7617 63.259 58.7806 61.2401 61.2622 61.2401L71.2621 61.2401C73.7432 61.2401 75.7617 63.259 75.7617 65.7406C75.7617 68.2217 73.7432 70.2402 71.2621 70.2402ZM61.2874 62.907C59.725 62.907 58.4538 64.1782 58.4538 65.7406C58.4538 67.3026 59.725 68.5733 61.2874 68.5733L71.236 68.5733C72.7985 68.5733 74.0696 67.3026 74.0696 65.7406C74.0696 64.1782 72.7985 62.907 71.236 62.907L61.2874 62.907Z" fill="black" fill-opacity="0.08"/>
<path d="M49.9414 79.7401L39.9414 79.7401C38.8805 79.7401 37.8631 79.3187 37.113 78.5685C36.3628 77.8184 35.9414 76.801 35.9414 75.7401C35.9414 74.6792 36.3628 73.6618 37.113 72.9117C37.8631 72.1615 38.8805 71.7401 39.9414 71.7401L49.9414 71.7401C51.0023 71.7401 52.0197 72.1615 52.7698 72.9117C53.52 73.6618 53.9414 74.6792 53.9414 75.7401C53.9414 76.801 53.52 77.8184 52.7698 78.5685C52.0197 79.3187 51.0023 79.7401 49.9414 79.7401ZM39.9674 72.4071C39.0834 72.4071 38.2357 72.7583 37.6106 73.3833C36.9856 74.0084 36.6344 74.8561 36.6344 75.7401C36.6344 76.6241 36.9856 77.4718 37.6106 78.0969C38.2357 78.722 39.0834 79.0731 39.9674 79.0731L49.9164 79.0731C50.8004 79.0731 51.6481 78.722 52.2732 78.0969C52.8983 77.4718 53.2494 76.6241 53.2494 75.7401C53.2494 74.8561 52.8983 74.0084 52.2732 73.3833C51.6481 72.7583 50.8004 72.4071 49.9164 72.4071L39.9674 72.4071Z" fill="#0D0D0D"/>
<path d="M49.9418 79.7402C52.1472 79.7402 53.9414 77.946 53.9414 75.7406C53.9414 73.5347 52.1472 71.7401 49.9418 71.7401L39.9419 71.7401C37.736 71.7401 35.9414 73.5347 35.9414 75.7406C35.9414 77.946 37.736 79.7402 39.9419 79.7402L49.9418 79.7402ZM39.9671 72.407L49.9157 72.407C51.7539 72.407 53.2493 73.9025 53.2493 75.7406C53.2493 77.5783 51.7539 79.0733 49.9157 79.0733L39.9671 79.0733C38.129 79.0733 36.6335 77.5783 36.6335 75.7406C36.6335 73.9025 38.129 72.407 39.9671 72.407ZM49.9418 80.2402L39.9419 80.2402C37.4603 80.2402 35.4414 78.2217 35.4414 75.7406C35.4414 73.259 37.4603 71.2401 39.9419 71.2401L49.9418 71.2401C52.4229 71.2401 54.4414 73.259 54.4414 75.7406C54.4414 78.2217 52.4229 80.2402 49.9418 80.2402ZM39.9671 72.907C38.4047 72.907 37.1335 74.1782 37.1335 75.7406C37.1335 77.3026 38.4047 78.5733 39.9671 78.5733L49.9157 78.5733C51.4782 78.5733 52.7493 77.3026 52.7493 75.7406C52.7493 74.1782 51.4782 72.907 49.9157 72.907L39.9671 72.907Z" fill="black" fill-opacity="0.08"/>
<path d="M71.2617 79.7401L61.2617 79.7401C60.2009 79.7401 59.1834 79.3187 58.4333 78.5685C57.6831 77.8184 57.2617 76.801 57.2617 75.7401C57.2617 74.6792 57.6831 73.6618 58.4333 72.9117C59.1834 72.1615 60.2009 71.7401 61.2617 71.7401L71.2617 71.7401C72.3226 71.7401 73.34 72.1615 74.0901 72.9117C74.8403 73.6618 75.2617 74.6792 75.2617 75.7401C75.2617 76.801 74.8403 77.8184 74.0901 78.5685C73.34 79.3187 72.3226 79.7401 71.2617 79.7401ZM61.2877 72.4071C60.4038 72.4071 59.556 72.7583 58.9309 73.3833C58.3059 74.0084 57.9547 74.8561 57.9547 75.7401C57.9547 76.6241 58.3059 77.4718 58.9309 78.0969C59.556 78.722 60.4038 79.0731 61.2877 79.0731L71.2367 79.0731C72.1207 79.0731 72.9684 78.722 73.5935 78.0969C74.2186 77.4718 74.5697 76.6241 74.5697 75.7401C74.5697 74.8561 74.2186 74.0084 73.5935 73.3833C72.9684 72.7583 72.1207 72.4071 71.2367 72.4071L61.2877 72.4071Z" fill="#0D0D0D"/>
<path d="M71.2621 79.7402C73.4675 79.7402 75.2617 77.946 75.2617 75.7406C75.2617 73.5347 73.4675 71.7401 71.2621 71.7401L61.2622 71.7401C59.0563 71.7401 57.2617 73.5347 57.2617 75.7406C57.2617 77.946 59.0563 79.7402 61.2622 79.7402L71.2621 79.7402ZM61.2874 72.407L71.236 72.407C73.0742 72.407 74.5696 73.9025 74.5696 75.7406C74.5696 77.5783 73.0742 79.0733 71.236 79.0733L61.2874 79.0733C59.4493 79.0733 57.9538 77.5783 57.9538 75.7406C57.9538 73.9025 59.4493 72.407 61.2874 72.407ZM71.2621 80.2402L61.2622 80.2402C58.7806 80.2402 56.7617 78.2217 56.7617 75.7406C56.7617 73.259 58.7806 71.2401 61.2622 71.2401L71.2621 71.2401C73.7432 71.2401 75.7617 73.259 75.7617 75.7406C75.7617 78.2217 73.7432 80.2402 71.2621 80.2402ZM61.2874 72.907C59.725 72.907 58.4538 74.1782 58.4538 75.7406C58.4538 77.3026 59.725 78.5733 61.2874 78.5733L71.236 78.5733C72.7985 78.5733 74.0696 77.3026 74.0696 75.7406C74.0696 74.1782 72.7985 72.907 71.236 72.907L61.2874 72.907Z" fill="black" fill-opacity="0.08"/>
<path d="M49.9414 89.7401L39.9414 89.7401C38.8805 89.7401 37.8631 89.3187 37.113 88.5685C36.3628 87.8184 35.9414 86.801 35.9414 85.7401C35.9414 84.6792 36.3628 83.6618 37.113 82.9117C37.8631 82.1615 38.8805 81.7401 39.9414 81.7401L49.9414 81.7401C51.0023 81.7401 52.0197 82.1615 52.7698 82.9117C53.52 83.6618 53.9414 84.6792 53.9414 85.7401C53.9414 86.801 53.52 87.8184 52.7698 88.5685C52.0197 89.3187 51.0023 89.7401 49.9414 89.7401ZM39.9674 82.4071C39.0834 82.4071 38.2357 82.7583 37.6106 83.3833C36.9856 84.0084 36.6344 84.8561 36.6344 85.7401C36.6344 86.6241 36.9856 87.4718 37.6106 88.0969C38.2357 88.722 39.0834 89.0731 39.9674 89.0731L49.9164 89.0731C50.8004 89.0731 51.6481 88.722 52.2732 88.0969C52.8983 87.4718 53.2494 86.6241 53.2494 85.7401C53.2494 84.8561 52.8983 84.0084 52.2732 83.3833C51.6481 82.7583 50.8004 82.4071 49.9164 82.4071L39.9674 82.4071Z" fill="#0D0D0D"/>
<path d="M49.9418 89.7402C52.1472 89.7402 53.9414 87.946 53.9414 85.7406C53.9414 83.5347 52.1472 81.7401 49.9418 81.7401L39.9419 81.7401C37.736 81.7401 35.9414 83.5347 35.9414 85.7406C35.9414 87.946 37.736 89.7402 39.9419 89.7402L49.9418 89.7402ZM39.9671 82.407L49.9157 82.407C51.7539 82.407 53.2493 83.9025 53.2493 85.7406C53.2493 87.5783 51.7539 89.0733 49.9157 89.0733L39.9671 89.0733C38.129 89.0733 36.6335 87.5783 36.6335 85.7406C36.6335 83.9025 38.129 82.407 39.9671 82.407ZM49.9418 90.2402L39.9419 90.2402C37.4603 90.2402 35.4414 88.2217 35.4414 85.7406C35.4414 83.259 37.4603 81.2401 39.9419 81.2401L49.9418 81.2401C52.4229 81.2401 54.4414 83.259 54.4414 85.7406C54.4414 88.2217 52.4229 90.2402 49.9418 90.2402ZM39.9671 82.907C38.4047 82.907 37.1335 84.1782 37.1335 85.7406C37.1335 87.3026 38.4047 88.5733 39.9671 88.5733L49.9157 88.5733C51.4782 88.5733 52.7493 87.3026 52.7493 85.7406C52.7493 84.1782 51.4782 82.907 49.9157 82.907L39.9671 82.907Z" fill="black" fill-opacity="0.08"/>
<path d="M71.2617 89.7401L61.2617 89.7401C60.2009 89.7401 59.1834 89.3187 58.4333 88.5685C57.6831 87.8184 57.2617 86.801 57.2617 85.7401C57.2617 84.6792 57.6831 83.6618 58.4333 82.9117C59.1834 82.1615 60.2009 81.7401 61.2617 81.7401L71.2617 81.7401C72.3226 81.7401 73.34 82.1615 74.0901 82.9117C74.8403 83.6618 75.2617 84.6792 75.2617 85.7401C75.2617 86.801 74.8403 87.8184 74.0901 88.5685C73.34 89.3187 72.3226 89.7401 71.2617 89.7401ZM61.2877 82.4071C60.4038 82.4071 59.556 82.7583 58.9309 83.3833C58.3059 84.0084 57.9547 84.8561 57.9547 85.7401C57.9547 86.6241 58.3059 87.4718 58.9309 88.0969C59.556 88.722 60.4038 89.0731 61.2877 89.0731L71.2367 89.0731C72.1207 89.0731 72.9684 88.722 73.5935 88.0969C74.2186 87.4718 74.5697 86.6241 74.5697 85.7401C74.5697 84.8561 74.2186 84.0084 73.5935 83.3833C72.9684 82.7583 72.1207 82.4071 71.2367 82.4071L61.2877 82.4071Z" fill="#0D0D0D"/>
<path d="M71.2621 89.7402C73.4675 89.7402 75.2617 87.946 75.2617 85.7406C75.2617 83.5347 73.4675 81.7401 71.2621 81.7401L61.2622 81.7401C59.0563 81.7401 57.2617 83.5347 57.2617 85.7406C57.2617 87.946 59.0563 89.7402 61.2622 89.7402L71.2621 89.7402ZM61.2874 82.407L71.236 82.407C73.0742 82.407 74.5696 83.9025 74.5696 85.7406C74.5696 87.5783 73.0742 89.0733 71.236 89.0733L61.2874 89.0733C59.4493 89.0733 57.9538 87.5783 57.9538 85.7406C57.9538 83.9025 59.4493 82.407 61.2874 82.407ZM71.2621 90.2402L61.2622 90.2402C58.7806 90.2402 56.7617 88.2217 56.7617 85.7406C56.7617 83.259 58.7806 81.2401 61.2622 81.2401L71.2621 81.2401C73.7432 81.2401 75.7617 83.259 75.7617 85.7406C75.7617 88.2217 73.7432 90.2402 71.2621 90.2402ZM61.2874 82.907C59.725 82.907 58.4538 84.1782 58.4538 85.7406C58.4538 87.3026 59.725 88.5733 61.2874 88.5733L71.236 88.5733C72.7985 88.5733 74.0696 87.3026 74.0696 85.7406C74.0696 84.1782 72.7985 82.907 71.236 82.907L61.2874 82.907Z" fill="black" fill-opacity="0.08"/>
<g opacity="0.75">
<path d="M362.496 33.0514C362.388 33.1581 362.303 33.285 362.245 33.4249C362.186 33.5647 362.156 33.7147 362.156 33.8662C362.156 34.0177 362.186 34.1677 362.245 34.3075C362.303 34.4474 362.388 34.5743 362.496 34.681C365.993 38.1811 367.958 42.9268 367.958 47.8749C367.958 52.823 365.993 57.5686 362.496 61.0687C362.39 61.1757 362.307 61.3025 362.25 61.4417C362.194 61.5809 362.165 61.7299 362.166 61.8801C362.168 62.0303 362.198 62.1789 362.257 62.3173C362.315 62.4557 362.4 62.5812 362.507 62.6866C362.614 62.7921 362.741 62.8755 362.88 62.932C363.02 62.9885 363.168 63.017 363.319 63.0159C363.469 63.0148 363.618 62.9842 363.756 62.9257C363.894 62.8672 364.02 62.782 364.125 62.675C368.049 58.7395 370.252 53.4092 370.252 47.8523C370.252 42.2953 368.049 36.965 364.125 33.0295C364.017 32.9235 363.889 32.8399 363.748 32.7836C363.608 32.7274 363.457 32.6995 363.306 32.7017C363.154 32.7038 363.005 32.736 362.866 32.7962C362.727 32.8565 362.601 32.9437 362.496 33.0528L362.496 33.0514Z" fill="#F9F9F9"/>
<path d="M358.5 37.0522C358.392 37.1589 358.307 37.2858 358.248 37.4256C358.19 37.5655 358.16 37.7155 358.16 37.867C358.16 38.0185 358.19 38.1685 358.248 38.3083C358.307 38.4482 358.392 38.5751 358.5 38.6818C360.929 41.1183 362.294 44.4189 362.294 47.86C362.294 51.301 360.929 54.6016 358.5 57.0382C358.393 57.1443 358.308 57.2706 358.249 57.4096C358.191 57.5487 358.161 57.6978 358.16 57.8486C358.16 57.9993 358.189 58.1487 358.246 58.2882C358.303 58.4277 358.387 58.5546 358.493 58.6615C358.6 58.7685 358.726 58.8536 358.865 58.9118C359.004 58.97 359.153 59.0003 359.304 59.0008C359.455 59.0014 359.604 58.9723 359.743 58.9151C359.883 58.858 360.01 58.7739 360.117 58.6677C362.982 55.7963 364.591 51.9058 364.591 47.8497C364.591 43.7936 362.982 39.903 360.117 37.0317C359.899 36.8212 359.606 36.7056 359.303 36.71C359 36.7143 358.712 36.8383 358.5 37.0549L358.5 37.0522Z" fill="#B8B8B8"/>
<path d="M354.499 54.6427C354.714 54.8561 355.005 54.976 355.308 54.976C355.611 54.976 355.902 54.8561 356.117 54.6427C357.924 52.8353 358.939 50.384 358.939 47.828C358.939 45.272 357.924 42.8207 356.117 41.0133C355.901 40.7989 355.608 40.679 355.304 40.6802C354.999 40.6813 354.708 40.8034 354.493 41.0195C354.279 41.2356 354.159 41.528 354.16 41.8324C354.161 42.1369 354.283 42.4284 354.499 42.6429C355.87 44.0228 356.64 45.889 356.64 47.8341C356.64 49.7793 355.87 51.6455 354.499 53.0254C354.286 53.2404 354.166 53.5311 354.166 53.834C354.166 54.137 354.286 54.4277 354.499 54.6427Z" fill="#888888"/>
</g>
<path d="M43.9432 215.331C43.5455 212.842 41.5966 211.388 39.1364 211.388C36.125 211.388 33.9034 213.643 33.9034 217.365C33.9034 221.087 36.1136 223.342 39.1364 223.342C41.6932 223.342 43.5625 221.74 43.9432 219.439L42.1705 219.433C41.8693 220.922 40.6193 221.74 39.1477 221.74C37.1534 221.74 35.6477 220.212 35.6477 217.365C35.6477 214.541 37.1477 212.99 39.1534 212.99C40.6364 212.99 41.8807 213.825 42.1705 215.331L43.9432 215.331ZM48.4474 223.376C49.8906 223.376 50.7031 222.643 51.027 221.99L51.0952 221.99L51.0952 223.183L52.7543 223.183L52.7543 217.388C52.7543 214.848 50.7543 214.342 49.3679 214.342C47.7884 214.342 46.3338 214.979 45.7656 216.569L47.3622 216.933C47.6122 216.314 48.2486 215.717 49.3906 215.717C50.4872 215.717 51.0497 216.291 51.0497 217.28L51.0497 217.319C51.0497 217.939 50.4134 217.927 48.8452 218.109C47.1918 218.302 45.4986 218.734 45.4986 220.717C45.4986 222.433 46.7884 223.376 48.4474 223.376ZM48.8168 222.013C47.8565 222.013 47.1634 221.581 47.1634 220.74C47.1634 219.831 47.9702 219.507 48.9531 219.376C49.5043 219.302 50.8111 219.155 51.0554 218.91L51.0554 220.035C51.0554 221.069 50.2315 222.013 48.8168 222.013ZM55.017 223.183L56.7159 223.183L56.7159 217.854C56.7159 216.712 57.5966 215.888 58.8011 215.888C59.1534 215.888 59.5511 215.95 59.6875 215.99L59.6875 214.365C59.517 214.342 59.1818 214.325 58.9659 214.325C57.9432 214.325 57.0682 214.905 56.75 215.842L56.6591 215.842L56.6591 214.456L55.017 214.456L55.017 223.183ZM64.1122 223.354C65.7031 223.354 66.3281 222.382 66.6349 221.825L66.777 221.825L66.777 223.183L68.4361 223.183L68.4361 211.547L66.7372 211.547L66.7372 215.871L66.6349 215.871C66.3281 215.331 65.7486 214.342 64.1236 214.342C62.0156 214.342 60.4645 216.007 60.4645 218.837C60.4645 221.66 61.9929 223.354 64.1122 223.354ZM64.4872 221.905C62.9702 221.905 62.1804 220.569 62.1804 218.819C62.1804 217.087 62.9531 215.785 64.4872 215.785C65.9702 215.785 66.7656 216.996 66.7656 218.819C66.7656 220.655 65.9531 221.905 64.4872 221.905ZM72.5597 218.001C72.5597 216.609 73.4403 215.814 74.6506 215.814C75.821 215.814 76.5199 216.558 76.5199 217.837L76.5199 223.183L78.2187 223.183L78.2187 217.632C78.2187 215.456 77.0256 214.342 75.2301 214.342C73.8722 214.342 73.054 214.933 72.6449 215.876L72.5369 215.876L72.5369 211.547L70.8608 211.547L70.8608 223.183L72.5597 223.183L72.5597 218.001ZM84.1619 223.359C86.6222 223.359 88.2301 221.558 88.2301 218.859C88.2301 216.143 86.6222 214.342 84.1619 214.342C81.7017 214.342 80.0937 216.143 80.0937 218.859C80.0937 221.558 81.7017 223.359 84.1619 223.359ZM84.1676 221.933C82.5597 221.933 81.8097 220.53 81.8097 218.854C81.8097 217.183 82.5597 215.763 84.1676 215.763C85.7642 215.763 86.5142 217.183 86.5142 218.854C86.5142 220.53 85.7642 221.933 84.1676 221.933ZM91.8253 211.547L90.1264 211.547L90.1264 223.183L91.8253 223.183L91.8253 211.547ZM97.3778 223.354C98.9687 223.354 99.5937 222.382 99.9006 221.825L100.043 221.825L100.043 223.183L101.702 223.183L101.702 211.547L100.003 211.547L100.003 215.871L99.9006 215.871C99.5937 215.331 99.0142 214.342 97.3892 214.342C95.2812 214.342 93.7301 216.007 93.7301 218.837C93.7301 221.66 95.2585 223.354 97.3778 223.354ZM97.7528 221.905C96.2358 221.905 95.446 220.569 95.446 218.819C95.446 217.087 96.2187 215.785 97.7528 215.785C99.2358 215.785 100.031 216.996 100.031 218.819C100.031 220.655 99.2187 221.905 97.7528 221.905ZM107.888 223.359C109.791 223.359 111.138 222.422 111.524 221.001L109.916 220.712C109.609 221.535 108.871 221.956 107.905 221.956C106.45 221.956 105.473 221.013 105.428 219.331L111.632 219.331L111.632 218.729C111.632 215.575 109.746 214.342 107.768 214.342C105.337 214.342 103.734 216.194 103.734 218.876C103.734 221.587 105.314 223.359 107.888 223.359ZM105.433 218.058C105.501 216.819 106.399 215.746 107.78 215.746C109.098 215.746 109.962 216.723 109.967 218.058L105.433 218.058ZM113.517 223.183L115.216 223.183L115.216 217.854C115.216 216.712 116.097 215.888 117.301 215.888C117.653 215.888 118.051 215.95 118.187 215.99L118.187 214.365C118.017 214.342 117.682 214.325 117.466 214.325C116.443 214.325 115.568 214.905 115.25 215.842L115.159 215.842L115.159 214.456L113.517 214.456L113.517 223.183ZM133.42 211.547L131.682 211.547L131.682 220.092L131.574 220.092L125.653 211.547L124.028 211.547L124.028 223.183L125.784 223.183L125.784 214.649L125.892 214.649L131.807 223.183L133.42 223.183L133.42 211.547ZM138.385 223.376C139.828 223.376 140.641 222.643 140.964 221.99L141.033 221.99L141.033 223.183L142.692 223.183L142.692 217.388C142.692 214.848 140.692 214.342 139.305 214.342C137.726 214.342 136.271 214.979 135.703 216.569L137.3 216.933C137.55 216.314 138.186 215.717 139.328 215.717C140.425 215.717 140.987 216.291 140.987 217.28L140.987 217.319C140.987 217.939 140.351 217.927 138.783 218.109C137.129 218.302 135.436 218.734 135.436 220.717C135.436 222.433 136.726 223.376 138.385 223.376ZM138.754 222.013C137.794 222.013 137.101 221.581 137.101 220.74C137.101 219.831 137.908 219.507 138.891 219.376C139.442 219.302 140.749 219.155 140.993 218.91L140.993 220.035C140.993 221.069 140.169 222.013 138.754 222.013ZM144.955 223.183L146.653 223.183L146.653 217.802C146.653 216.626 147.477 215.808 148.443 215.808C149.386 215.808 150.04 216.433 150.04 217.382L150.04 223.183L151.733 223.183L151.733 217.621C151.733 216.569 152.375 215.808 153.483 215.808C154.381 215.808 155.119 216.308 155.119 217.49L155.119 223.183L156.818 223.183L156.818 217.331C156.818 215.337 155.705 214.342 154.125 214.342C152.869 214.342 151.926 214.944 151.506 215.876L151.415 215.876C151.034 214.922 150.233 214.342 149.068 214.342C147.915 214.342 147.057 214.916 146.693 215.876L146.585 215.876L146.585 214.456L144.955 214.456L144.955 223.183ZM162.857 223.359C164.76 223.359 166.107 222.422 166.493 221.001L164.885 220.712C164.578 221.535 163.839 221.956 162.874 221.956C161.419 221.956 160.442 221.013 160.396 219.331L166.601 219.331L166.601 218.729C166.601 215.575 164.714 214.342 162.737 214.342C160.305 214.342 158.703 216.194 158.703 218.876C158.703 221.587 160.283 223.359 162.857 223.359ZM160.402 218.058C160.47 216.819 161.368 215.746 162.749 215.746C164.067 215.746 164.93 216.723 164.936 218.058L160.402 218.058Z" fill="#CBCCCC"/>
<defs>
<linearGradient id="paint0_linear" x1="76.7208" y1="85.9061" x2="42.1736" y2="53.1766" gradientUnits="userSpaceOnUse">
<stop stop-color="#ECE986"/>
<stop offset="1" stop-color="#DDDA92"/>
</linearGradient>
</defs>
</svg>