<svg xmlns:xlink="http://www.w3.org/1999/xlink" xmlns="http://www.w3.org/2000/svg" width="164" height="41" viewBox="0 0 164 41" fill="none">
<g clip-path="url(#clip0)">
<path d="M63.1123 18.4935H52.4065C52.5664 17.1613 53.2014 15.9376 54.1885 15.0598C55.1892 14.1893 56.4667 13.729 57.7766 13.7669C59.0909 13.7266 60.3722 14.1941 61.3681 15.0775C62.3386 15.9549 62.9567 17.1727 63.102 18.4935H63.1123ZM67.2223 21.5103C67.2669 20.931 67.2909 20.4788 67.2909 20.1644C67.3288 18.336 66.9091 16.5283 66.072 14.915C65.2911 13.4293 64.1142 12.2037 62.6797 11.3824C61.1708 10.5318 59.4728 10.0996 57.7526 10.1283C56.002 10.1018 54.2743 10.5398 52.7362 11.4C51.2776 12.2197 50.0714 13.4435 49.2545 14.9326C48.4066 16.4907 47.9742 18.2518 48.0013 20.0372C47.9726 21.8408 48.4175 23.619 49.2889 25.1842C50.1546 26.6971 51.4236 27.9231 52.9456 28.7168C54.4757 29.4656 56.1356 29.8931 57.8281 29.9744C59.5207 30.0556 61.212 29.7891 62.8033 29.1902C64.0516 28.6929 65.158 27.8802 66.0205 26.8269L64.5956 25.1454C64.5893 25.1365 64.5811 25.1292 64.5716 25.1242C64.313 24.858 63.9711 24.6945 63.6066 24.6629C63.2421 24.6312 62.8784 24.7333 62.5801 24.9511C61.3779 25.7572 59.9666 26.1697 58.532 26.1345C57.0867 26.1945 55.6618 25.7679 54.4735 24.9193C53.3864 24.1024 52.6561 22.8775 52.4409 21.5103H67.2223ZM80.7882 31.3274L89.6227 10.3508H86.7763C86.3706 10.3571 85.9751 10.4828 85.6367 10.7132C85.2984 10.9437 85.0313 11.269 84.8672 11.6508L79.4354 24.7215L74.0516 11.6897C73.8912 11.2984 73.6237 10.9636 73.2818 10.7259C72.9398 10.4882 72.538 10.3579 72.1254 10.3508H68.9219L77.1624 29.8367L76.819 30.5997C76.5179 31.3923 76.0404 32.1013 75.425 32.6698C74.8714 33.0982 74.1909 33.3166 73.4988 33.288C72.8993 33.2898 72.3054 33.1698 71.7511 32.9348C71.6687 32.903 71.5966 32.8641 71.5176 32.8253C71.3298 32.7584 71.1326 32.7237 70.9339 32.7228C70.5993 32.7216 70.2711 32.8174 69.9869 32.9992C69.7027 33.181 69.474 33.4415 69.327 33.7508C69.316 33.7614 69.3032 33.7698 69.2892 33.7755L68.4824 35.3051C69.1362 35.9025 69.9065 36.3493 70.7416 36.6157C71.6414 36.9261 72.5841 37.0848 73.5331 37.0856C75.0557 37.1315 76.5534 36.6801 77.8113 35.7962C78.9856 34.9389 79.9859 33.4552 80.8122 31.3451L80.7882 31.3274ZM106.375 20.0938C106.372 21.2942 106.022 22.4666 105.372 23.463C104.721 24.4594 103.798 25.235 102.719 25.6918C101.64 26.1486 100.453 26.2661 99.3094 26.0295C98.1655 25.7929 97.1155 25.2129 96.2919 24.3625C95.4683 23.5122 94.9081 22.4298 94.6822 21.2521C94.4562 20.0744 94.5746 18.8542 95.0223 17.7457C95.4701 16.6372 96.2271 15.6901 97.1978 15.024C98.1685 14.358 99.3093 14.0029 100.476 14.0036C101.251 14.0036 102.018 14.1607 102.734 14.4659C103.45 14.7711 104.101 15.2184 104.648 15.7824C105.196 16.3463 105.631 17.0158 105.927 17.7525C106.223 18.4892 106.375 19.2788 106.375 20.0761V20.0938ZM110.152 20.0761C110.152 18.1096 109.586 16.1871 108.525 14.5515C107.464 12.9159 105.955 11.6408 104.19 10.8873C102.424 10.1338 100.481 9.93573 98.6066 10.3182C96.7318 10.7006 95.0093 11.6464 93.6568 13.0359C92.3043 14.4254 91.3826 16.1963 91.0082 18.1247C90.6338 20.0531 90.8236 22.0525 91.5534 23.8699C92.2833 25.6874 93.5205 27.2414 95.1087 28.3355C96.6969 29.4296 98.5647 30.0147 100.476 30.0168C103.036 30.0131 105.49 28.9641 107.299 27.1003C109.108 25.2364 110.124 22.7101 110.124 20.0761H110.152ZM136.518 29.7625L143.478 10.3508H141.074C140.635 10.3424 140.204 10.4736 139.841 10.7265C139.477 10.9794 139.198 11.3417 139.042 11.7639L134.448 24.7462L129.352 10.3508H125.644L120.456 24.672L115.961 11.7498C115.808 11.3341 115.535 10.9763 115.18 10.7239C114.824 10.4715 114.402 10.3365 113.97 10.3367H111.305L118.231 29.7484H122.485L127.429 16.3704L132.305 29.7484L136.518 29.7625ZM160.209 20.0761C160.209 21.2777 159.863 22.4524 159.214 23.4513C158.565 24.4502 157.642 25.2285 156.563 25.6877C155.483 26.1469 154.296 26.2664 153.151 26.0309C152.005 25.7954 150.954 25.2157 150.129 24.365C149.304 23.5143 148.743 22.431 148.517 21.2521C148.29 20.0732 148.409 18.8518 148.858 17.7424C149.307 16.6331 150.066 15.6856 151.038 15.0201C152.01 14.3545 153.153 14.0008 154.321 14.0036C155.096 14.0031 155.864 14.1598 156.58 14.4649C157.296 14.7699 157.947 15.2171 158.495 15.7811C159.044 16.3451 159.478 17.0147 159.775 17.7517C160.071 18.4887 160.224 19.2785 160.223 20.0761H160.209ZM164 20.0761C164.001 18.1092 163.434 16.1862 162.373 14.5504C161.311 12.9146 159.802 11.6395 158.036 10.8863C156.27 10.1331 154.326 9.93564 152.451 10.3189C150.576 10.7022 148.853 11.6491 147.501 13.0397C146.149 14.4302 145.228 16.2021 144.855 18.1312C144.482 20.0603 144.673 22.06 145.405 23.8773C146.136 25.6945 147.375 27.2478 148.964 28.3407C150.554 29.4335 152.423 30.0168 154.335 30.0168C156.897 30.0168 159.355 28.9696 161.168 27.1055C162.98 25.2413 163.999 22.7129 164 20.0761Z" fill="#F5F5F5"/>
<path d="M39.3779 20.4233C39.3779 16.5347 38.2232 12.7334 36.0597 9.50019C33.8963 6.26694 30.8213 3.74693 27.2236 2.25883C23.6259 0.770726 19.6671 0.381371 15.8478 1.14C12.0286 1.89863 8.52032 3.77116 5.76677 6.52082C3.01322 9.27047 1.13803 12.7737 0.378327 16.5876C-0.381376 20.4015 0.00853081 24.3547 1.49874 27.9473C2.98895 31.5399 5.51253 34.6105 8.75037 36.7709C11.9882 38.9313 15.7949 40.0844 19.689 40.0844C24.9108 40.0844 29.9188 38.013 33.6112 34.3258C37.3036 30.6386 39.3779 25.6378 39.3779 20.4233Z" fill="#050301"/>
<path d="M12.8016 30.1875C12.7978 30.1921 12.794 30.1967 12.7902 30.2014L12.7853 30.207L12.8016 30.1875Z" fill="white"/>
<g clip-path="url(#clip1)">
<path d="M38.2502 20.3859C38.2502 16.7121 37.1592 13.1209 35.1153 10.0663C33.0714 7.01164 30.1663 4.63085 26.7674 3.22497C23.3684 1.81908 19.6284 1.45124 16.0201 2.16795C12.4118 2.88467 9.09743 4.65375 6.49601 7.25149C3.89459 9.84923 2.12301 13.1589 1.40528 16.7621C0.687546 20.3653 1.05591 24.1001 2.46379 27.4942C3.87166 30.8883 6.25582 33.7893 9.31476 35.8303C12.3737 37.8713 15.97 38.9607 19.649 38.9607C24.5823 38.9607 29.3136 37.0037 32.802 33.5203C36.2904 30.0368 38.2502 25.3122 38.2502 20.3859Z" fill="#F2761B"/>
<path d="M25.1826 13.617C24.979 14.0319 24.7071 14.4098 24.3781 14.7347C24.2135 14.8946 24.0369 15.0417 23.85 15.1748C23.7555 15.2412 23.6576 15.304 23.5596 15.3634L23.4022 15.4507L23.3638 15.4717H23.3393H23.3113L23.2623 15.4962C23.1269 15.5599 23.0074 15.653 22.9126 15.7686C22.818 15.8835 22.7509 16.0185 22.7167 16.1633C22.6999 16.2307 22.6917 16.2999 22.6922 16.3694C22.6887 16.4019 22.6887 16.4346 22.6922 16.4672C22.6922 16.4672 22.6922 16.4986 22.6922 16.5161V16.5754C22.7649 16.8591 22.7527 17.1578 22.6572 17.4347C22.5702 17.6977 22.4241 17.9373 22.2301 18.1353C22.0361 18.3332 21.7994 18.4843 21.5379 18.5768C21.325 18.652 21.1405 18.791 21.0098 18.975C20.95 19.0547 20.9066 19.1454 20.882 19.2419C20.8574 19.3384 20.8521 19.4388 20.8664 19.5373V19.5828C20.868 19.6107 20.868 19.6387 20.8664 19.6666C20.8714 19.7235 20.8714 19.7808 20.8664 19.8377C20.8706 19.955 20.86 20.0724 20.8349 20.187C20.7908 20.4034 20.704 20.6088 20.5795 20.7913C20.342 21.1405 19.9969 21.4029 19.5967 21.5387L19.5057 21.5702L19.4288 21.6016C19.2763 21.6726 19.1431 21.7793 19.0405 21.9125C18.9768 21.9891 18.9294 22.0778 18.9011 22.1733C18.8729 22.2687 18.8644 22.369 18.8761 22.4678V22.5062C18.8778 22.5353 18.8778 22.5645 18.8761 22.5936C18.8813 22.6517 18.8813 22.7101 18.8761 22.7682C18.8794 22.8853 18.87 23.0024 18.8481 23.1175C18.8021 23.3381 18.7142 23.548 18.5893 23.7357C18.4704 23.9179 18.32 24.0776 18.1451 24.2073C18.0598 24.2728 17.9684 24.3301 17.8723 24.3784L17.7254 24.4448L17.6519 24.4727L17.5889 24.4937C17.4024 24.5651 17.2441 24.695 17.1377 24.8639C17.0804 24.944 17.0394 25.0345 17.0172 25.1304C16.995 25.2263 16.992 25.3257 17.0083 25.4228L17.0328 25.538C17.0432 25.5923 17.0502 25.6471 17.0538 25.7022C17.0643 25.8102 17.0643 25.919 17.0538 26.027C17.0284 26.2401 16.9657 26.447 16.8684 26.6383C16.6749 27.0224 16.3479 27.3229 15.9485 27.4835C15.9193 27.4953 15.8887 27.5035 15.8576 27.508H15.8331C15.7979 27.5226 15.764 27.5402 15.7316 27.5604C15.6661 27.6041 15.6072 27.657 15.5567 27.7175C15.4505 27.8492 15.3828 28.0075 15.3609 28.1751C15.3504 28.2621 15.3504 28.3501 15.3609 28.4371V28.5034C15.3625 28.5138 15.3625 28.5245 15.3609 28.5349V28.5803C15.3814 28.6536 15.3966 28.7283 15.4063 28.8038C15.4446 29.1068 15.4098 29.4146 15.3049 29.7015C15.2059 29.9978 15.0223 30.2588 14.7767 30.4524C14.7443 30.4765 14.7104 30.4987 14.6753 30.5188L14.5739 30.5747L14.4969 30.6061L14.4445 30.6375C14.374 30.6832 14.3124 30.7412 14.2626 30.8087C14.1517 30.9685 14.0875 31.1559 14.0772 31.3501C14.0605 31.5584 14.0879 31.7678 14.1576 31.9648V31.9928C14.1767 32.0539 14.1713 32.1201 14.1426 32.1774C14.114 32.2347 14.0642 32.2787 14.0037 32.3001C13.9723 32.3113 13.9388 32.3155 13.9056 32.3125C13.8724 32.3094 13.8403 32.2993 13.8114 32.2827C13.7589 32.2512 13.7064 32.2198 13.6575 32.1849C13.6301 32.1571 13.6055 32.1266 13.584 32.0941L13.5315 32.0207L13.4476 31.8915C13.3951 31.8041 13.3427 31.7168 13.2937 31.6225C13.1931 31.4388 13.1077 31.2473 13.0383 31.0497C12.9636 30.8389 12.9166 30.6194 12.8984 30.3965C12.8954 30.2695 12.9095 30.1426 12.9404 30.0193C12.9699 29.8694 13.036 29.729 13.1328 29.6107L13.1573 29.5827V29.5583C13.169 29.5356 13.1795 29.5122 13.1888 29.4884C13.206 29.4301 13.2188 29.3705 13.2272 29.3103C13.2412 29.1686 13.2412 29.0258 13.2272 28.8841C13.2099 28.7371 13.1783 28.592 13.1328 28.451C13.112 28.3811 13.0875 28.3123 13.0593 28.245L13.0174 28.1472L12.9929 28.0983L12.9649 28.0424C12.7729 27.6726 12.6915 27.2555 12.7305 26.8408C12.7541 26.6051 12.8319 26.378 12.9579 26.1772C13.0258 26.0709 13.1082 25.9745 13.2027 25.8908C13.2517 25.8482 13.303 25.8086 13.3566 25.772L13.4406 25.7266L13.5036 25.6917H13.5315C13.6932 25.5749 13.8094 25.4058 13.8603 25.2132C13.8977 25.1087 13.919 24.9992 13.9233 24.8884C13.9287 24.8361 13.9287 24.7834 13.9233 24.7312C13.9253 24.7056 13.9253 24.6799 13.9233 24.6543V24.595C13.9233 24.567 13.9233 24.5391 13.9058 24.5146C13.8678 24.2928 13.8774 24.0654 13.9338 23.8475C13.9863 23.6322 14.0828 23.4301 14.2171 23.2537C14.4679 22.9162 14.8232 22.6706 15.228 22.5551L15.2909 22.5342H15.3329L15.4203 22.5028C15.4765 22.4785 15.5303 22.4493 15.5812 22.4154C15.6889 22.3521 15.7858 22.2719 15.868 22.1779C15.944 22.0964 16.0045 22.0017 16.0464 21.8985C16.0621 21.8554 16.0738 21.811 16.0814 21.7658C16.0814 21.7448 16.0814 21.7274 16.0814 21.7099V21.647C16.0797 21.6133 16.0797 21.5795 16.0814 21.5457C16.0968 21.2969 16.1763 21.0562 16.3123 20.8472C16.4321 20.6586 16.5822 20.4911 16.7565 20.3512C17.0717 20.1004 17.4422 19.928 17.8373 19.8482H17.8723C18.1097 19.7825 18.3287 19.663 18.5124 19.4989C18.6022 19.4262 18.6791 19.3388 18.7397 19.2405C18.7608 19.2018 18.7773 19.1608 18.7887 19.1182C18.792 19.1009 18.792 19.0831 18.7887 19.0658C18.7901 19.0577 18.7901 19.0495 18.7887 19.0414V18.9575C18.8084 18.708 18.8915 18.4676 19.03 18.259C19.1496 18.0775 19.2972 17.916 19.4673 17.7805C19.7839 17.5247 20.1547 17.3444 20.5516 17.253C20.8608 17.1907 21.1409 17.0287 21.3491 16.792C21.4288 16.7018 21.4799 16.5899 21.496 16.4706V16.4322V16.4008C21.4786 16.1796 21.5121 15.9574 21.5939 15.7511C21.6941 15.5013 21.8441 15.2743 22.0346 15.084C22.2124 14.9015 22.4208 14.7514 22.6502 14.6404L22.8251 14.5636L22.9126 14.5321H22.9335C23.007 14.4972 23.0909 14.4553 23.1679 14.4099C23.3261 14.3167 23.477 14.2117 23.6191 14.0955C23.9051 13.8555 24.1507 13.5713 24.3466 13.2538C24.5428 12.9289 24.6868 12.5753 24.7734 12.2059C24.9526 11.4309 24.9728 10.6278 24.8328 9.84476C24.8167 9.79653 24.8197 9.74396 24.8412 9.69785C24.8626 9.65173 24.9009 9.61557 24.9483 9.59677C24.9937 9.5796 25.0442 9.58095 25.0887 9.60055C25.1331 9.62016 25.1681 9.65643 25.1861 9.70156V9.7295C25.3461 10.1305 25.4634 10.5473 25.5359 10.9729C25.6141 11.4074 25.6306 11.8507 25.5849 12.2897C25.5849 12.4015 25.5499 12.5133 25.5289 12.639C25.5079 12.7648 25.4799 12.8626 25.4449 12.9708C25.3768 13.1936 25.2891 13.4098 25.1826 13.617ZM27.9808 11.9754C27.5508 10.8668 26.9731 9.82122 26.2634 8.86677C26.041 8.54977 25.7968 8.24865 25.5324 7.96562C25.2944 8.07884 25.0955 8.26016 24.9609 8.48655C24.8264 8.71294 24.7623 8.97416 24.7769 9.23701C24.6978 8.86573 24.5446 8.51417 24.3264 8.20332C24.1083 7.89246 23.8297 7.62868 23.5072 7.42773C23.5072 7.42773 15.7631 6.58596 11.7966 14.9932C8.50874 21.9788 11.6322 32.6005 13.1957 33.2991C14.7593 33.9976 24.6719 29.1531 27.764 22.0941C29.4744 18.1961 29.1316 14.5985 27.9983 11.9649" fill="white"/>
</g>
</g>
<defs>
<clipPath id="clip0">
<rect width="164" height="39.3222" fill="white" transform="translate(0 0.762207)"/>
</clipPath>
<clipPath id="clip1">
<rect width="37.2023" height="37.1497" fill="white" transform="translate(1.04785 1.81104)"/>
</clipPath>
</defs>
</svg>