<svg xmlns:xlink="http://www.w3.org/1999/xlink" xmlns="http://www.w3.org/2000/svg" width="100" height="24" viewBox="0 0 100 24" fill="none">
<g clip-path="url(#clip0)">
<path d="M37.3243 11.045H30.6773C30.7766 10.2411 31.1709 9.50263 31.7837 8.97292C32.405 8.44761 33.1982 8.16981 34.0115 8.19267C34.8275 8.16834 35.6231 8.45051 36.2414 8.98358C36.8439 9.51308 37.2277 10.248 37.3179 11.045H37.3243ZM39.8761 12.8656C39.9038 12.516 39.9188 12.2431 39.9188 12.0534C39.9423 10.95 39.6817 9.85912 39.162 8.88551C38.6771 7.98894 37.9464 7.24937 37.0557 6.7537C36.1189 6.2404 35.0647 5.9796 33.9966 5.9969C32.9097 5.98094 31.837 6.24525 30.882 6.76436C29.9764 7.25901 29.2275 7.99753 28.7203 8.89617C28.1938 9.83641 27.9254 10.8992 27.9422 11.9766C27.9244 13.0651 28.2006 14.1381 28.7416 15.0827C29.2791 15.9957 30.067 16.7355 31.012 17.2145C31.9621 17.6664 32.9926 17.9244 34.0435 17.9734C35.0944 18.0224 36.1445 17.8616 37.1325 17.5002C37.9075 17.2001 38.5945 16.7096 39.13 16.074L38.2453 15.0593C38.2414 15.0539 38.2363 15.0495 38.2304 15.0465C38.0698 14.8858 37.8576 14.7872 37.6312 14.7681C37.4049 14.7489 37.1791 14.8106 36.9939 14.942C36.2475 15.4284 35.3712 15.6774 34.4805 15.6562C33.5831 15.6924 32.6985 15.4349 31.9607 14.9228C31.2857 14.4298 30.8323 13.6907 30.6987 12.8656H39.8761ZM48.2989 18.7899L53.7841 6.13121H52.0168C51.7649 6.13496 51.5194 6.21086 51.3093 6.3499C51.0992 6.48895 50.9334 6.68531 50.8315 6.91572L47.459 14.8034L44.1163 6.93917C44.0167 6.70306 43.8507 6.50098 43.6384 6.35753C43.426 6.21409 43.1766 6.13546 42.9204 6.13121H40.9314L46.0477 17.8903L45.8346 18.3508C45.6476 18.8291 45.3512 19.2569 44.969 19.6C44.6253 19.8585 44.2028 19.9903 43.7731 19.9731C43.4009 19.9742 43.0321 19.9017 42.688 19.7599C42.6368 19.7407 42.5921 19.7173 42.543 19.6938C42.4264 19.6535 42.304 19.6326 42.1806 19.632C41.9729 19.6313 41.7691 19.6891 41.5926 19.7988C41.4162 19.9085 41.2742 20.0657 41.1829 20.2524C41.1761 20.2588 41.1682 20.2638 41.1595 20.2673L40.6585 21.1904C41.0645 21.5508 41.5427 21.8205 42.0612 21.9813C42.6199 22.1686 43.2052 22.2643 43.7944 22.2648C44.7398 22.2925 45.6697 22.0201 46.4507 21.4867C47.1797 20.9694 47.8008 20.074 48.3139 18.8006L48.2989 18.7899ZM64.1852 12.0108C64.1831 12.7352 63.9664 13.4427 63.5623 14.044C63.1583 14.6453 62.5851 15.1133 61.9152 15.389C61.2452 15.6647 60.5086 15.7356 59.7984 15.5928C59.0882 15.45 58.4362 15.1 57.9249 14.5868C57.4135 14.0737 57.0657 13.4205 56.9254 12.7098C56.7852 11.9991 56.8586 11.2628 57.1367 10.5938C57.4147 9.92483 57.8847 9.35328 58.4874 8.95133C59.0901 8.54939 59.7984 8.33509 60.5228 8.33551C61.0039 8.33551 61.4803 8.43031 61.9248 8.6145C62.3693 8.79869 62.7732 9.06865 63.1133 9.40897C63.4534 9.74929 63.7231 10.1533 63.9071 10.5979C64.091 11.0425 64.1855 11.519 64.1852 12.0001V12.0108ZM66.5302 12.0001C66.5307 10.8134 66.1792 9.65318 65.5204 8.66617C64.8615 7.67916 63.9248 6.90965 62.8286 6.45493C61.7325 6.00021 60.5261 5.88069 59.3621 6.11149C58.198 6.34228 57.1285 6.91303 56.2888 7.75156C55.4491 8.5901 54.8768 9.65879 54.6444 10.8225C54.4119 11.9862 54.5297 13.1928 54.9829 14.2896C55.436 15.3863 56.2042 16.3241 57.1903 16.9844C58.1764 17.6447 59.3361 17.9978 60.5228 17.999C62.1123 17.9968 63.636 17.3637 64.7592 16.239C65.8823 15.1142 66.5132 13.5896 66.5132 12.0001H66.5302ZM82.9005 17.8455L87.2217 6.13121H85.7294C85.4568 6.12611 85.1893 6.20528 84.9635 6.3579C84.7376 6.51052 84.5643 6.72915 84.4674 6.98393L81.615 14.8184L78.4514 6.13121H76.149L72.9278 14.7736L70.1373 6.97541C70.0421 6.72458 69.8728 6.50866 69.6519 6.35634C69.4311 6.20403 69.1691 6.12253 68.9008 6.12268H67.2465L71.5464 17.837H74.1877L77.2575 9.76382L80.2847 17.837L82.9005 17.8455ZM97.61 12.0001C97.61 12.7253 97.3949 13.4341 96.9918 14.0369C96.5888 14.6397 96.0159 15.1094 95.3458 15.3866C94.6757 15.6637 93.9384 15.7357 93.2273 15.5936C92.5162 15.4516 91.8633 15.1017 91.3511 14.5883C90.839 14.075 90.4906 13.4212 90.3502 12.7098C90.2098 11.9984 90.2835 11.2613 90.5622 10.5918C90.8409 9.92233 91.3119 9.3506 91.9157 8.94895C92.5194 8.54731 93.2288 8.33382 93.9539 8.33551C94.4353 8.33523 94.9119 8.42982 95.3567 8.61389C95.8014 8.79795 96.2055 9.06787 96.5458 9.40822C96.8862 9.74856 97.1561 10.1527 97.3401 10.5974C97.5242 11.0421 97.6188 11.5188 97.6185 12.0001H97.61ZM99.9635 12.0001C99.964 10.8131 99.6124 9.65266 98.9532 8.66551C98.2941 7.67836 97.357 6.90885 96.2604 6.45432C95.1639 5.99978 93.9573 5.88064 92.793 6.11195C91.6288 6.34326 90.5593 6.91464 89.7198 7.75382C88.8803 8.593 88.3086 9.66228 88.0769 10.8264C87.8451 11.9906 87.9639 13.1973 88.418 14.294C88.8721 15.3907 89.6413 16.328 90.6282 16.9875C91.6151 17.647 92.7755 17.999 93.9625 17.999C95.5537 17.999 97.0798 17.3671 98.2051 16.2421C99.3305 15.1172 99.963 13.5913 99.9635 12.0001Z" fill="black"/>
<path d="M24 12C24 9.62663 23.2962 7.30655 21.9776 5.33316C20.6591 3.35977 18.7849 1.8217 16.5922 0.913451C14.3995 0.00519935 11.9867 -0.232441 9.65892 0.230582C7.33115 0.693605 5.19295 1.83649 3.51472 3.51472C1.83649 5.19295 0.693605 7.33115 0.230582 9.65892C-0.232441 11.9867 0.00519935 14.3995 0.913451 16.5922C1.8217 18.7849 3.35977 20.6591 5.33316 21.9776C7.30655 23.2962 9.62663 24 12 24C15.1826 24 18.2348 22.7357 20.4853 20.4853C22.7357 18.2348 24 15.1826 24 12Z" fill="#F2761B"/>
<path d="M7.80216 17.9593C7.79982 17.9621 7.7975 17.9649 7.79521 17.9678L7.79222 17.9712L7.80216 17.9593Z" fill="white"/>
<g clip-path="url(#clip1)">
<path d="M23.3127 11.9767C23.3127 9.73441 22.6478 7.54252 21.4021 5.67816C20.1563 3.81379 18.3857 2.3607 16.3142 1.50263C14.2426 0.644561 11.9631 0.42005 9.76394 0.857491C7.56478 1.29493 5.54472 2.37468 3.95921 3.96018C2.3737 5.54569 1.29396 7.56575 0.856514 9.76492C0.419074 11.9641 0.643584 14.2436 1.50165 16.3151C2.35973 18.3867 3.81282 20.1573 5.67718 21.403C7.54154 22.6488 9.73343 23.3137 11.9757 23.3137C14.9824 23.3137 17.866 22.1192 19.9921 19.9931C22.1182 17.867 23.3127 14.9834 23.3127 11.9767Z" fill="#F2761B"/>
<path d="M15.3476 7.8451C15.2236 8.09835 15.0578 8.32896 14.8573 8.52729C14.757 8.62486 14.6494 8.71466 14.5354 8.79589C14.4779 8.8364 14.4182 8.87477 14.3585 8.91101L14.2625 8.96431L14.2391 8.9771H14.2242H14.2071L14.1773 8.99202C14.0947 9.03092 14.0219 9.08772 13.9641 9.1583C13.9064 9.22844 13.8656 9.31084 13.8447 9.3992C13.8345 9.44034 13.8295 9.48259 13.8298 9.52498C13.8277 9.54482 13.8277 9.56483 13.8298 9.58467C13.8298 9.58467 13.8298 9.60385 13.8298 9.61451V9.65075C13.8741 9.82389 13.8667 10.0062 13.8085 10.1752C13.7554 10.3357 13.6664 10.482 13.5482 10.6028C13.4299 10.7236 13.2856 10.8158 13.1263 10.8723C12.9965 10.9181 12.884 11.003 12.8044 11.1153C12.768 11.164 12.7415 11.2193 12.7265 11.2782C12.7115 11.3371 12.7083 11.3984 12.717 11.4585V11.4862C12.718 11.5033 12.718 11.5204 12.717 11.5374C12.7201 11.5722 12.7201 11.6071 12.717 11.6419C12.7196 11.7135 12.7131 11.7851 12.6978 11.8551C12.6709 11.9871 12.618 12.1125 12.5422 12.2239C12.3974 12.437 12.1871 12.5971 11.9431 12.6801L11.8877 12.6993L11.8408 12.7184C11.7478 12.7618 11.6667 12.8269 11.6042 12.9082C11.5653 12.9549 11.5364 13.0091 11.5192 13.0673C11.502 13.1256 11.4968 13.1868 11.504 13.2471V13.2706C11.505 13.2883 11.505 13.3061 11.504 13.3239C11.5071 13.3593 11.5071 13.395 11.504 13.4305C11.506 13.5019 11.5002 13.5734 11.4869 13.6436C11.4588 13.7783 11.4053 13.9064 11.3292 14.021C11.2567 14.1322 11.165 14.2296 11.0584 14.3088C11.0064 14.3488 10.9507 14.3838 10.8921 14.4132L10.8026 14.4537L10.7578 14.4708L10.7195 14.4836C10.6058 14.5272 10.5093 14.6065 10.4445 14.7096C10.4095 14.7584 10.3845 14.8137 10.371 14.8722C10.3575 14.9308 10.3556 14.9914 10.3656 15.0506L10.3805 15.121C10.3869 15.1541 10.3911 15.1876 10.3933 15.2212C10.3997 15.2871 10.3997 15.3535 10.3933 15.4195C10.3778 15.5495 10.3396 15.6758 10.2803 15.7925C10.1624 16.027 9.96306 16.2104 9.71964 16.3084C9.70184 16.3156 9.68322 16.3206 9.66421 16.3233H9.64929C9.62784 16.3323 9.60717 16.343 9.58746 16.3553C9.5475 16.382 9.5116 16.4143 9.48087 16.4513C9.41614 16.5316 9.37483 16.6282 9.36149 16.7305C9.3551 16.7836 9.3551 16.8373 9.36149 16.8904V16.9309C9.36249 16.9373 9.36249 16.9437 9.36149 16.9501V16.9778C9.374 17.0226 9.38326 17.0682 9.38921 17.1142C9.41252 17.2992 9.39133 17.487 9.32738 17.6621C9.26703 17.843 9.15515 18.0023 9.00548 18.1205C8.9857 18.1352 8.96505 18.1487 8.94366 18.161L8.88183 18.1951L8.83493 18.2143L8.80296 18.2335C8.76003 18.2613 8.72248 18.2967 8.6921 18.3379C8.62452 18.4354 8.58539 18.5498 8.57912 18.6683C8.56893 18.7955 8.58564 18.9233 8.62815 19.0435V19.0606C8.63977 19.0979 8.63649 19.1383 8.61901 19.1733C8.60152 19.2082 8.57119 19.2351 8.53435 19.2482C8.51519 19.255 8.49479 19.2576 8.47455 19.2557C8.45431 19.2539 8.43471 19.2477 8.4171 19.2375C8.38512 19.2184 8.35314 19.1992 8.3233 19.1778C8.3066 19.1609 8.29161 19.1423 8.27853 19.1224L8.24655 19.0777L8.19539 18.9988C8.16341 18.9455 8.13143 18.8922 8.10159 18.8346C8.04028 18.7225 7.98823 18.6056 7.94597 18.485C7.9004 18.3564 7.87173 18.2224 7.86069 18.0864C7.85884 18.0088 7.86744 17.9314 7.88628 17.8561C7.90425 17.7646 7.94452 17.6789 8.00353 17.6067L8.01845 17.5896V17.5747C8.02562 17.5609 8.03202 17.5466 8.03763 17.5321C8.04814 17.4965 8.05598 17.4601 8.06108 17.4234C8.06959 17.3369 8.06959 17.2498 8.06108 17.1633C8.05053 17.0735 8.03125 16.985 8.00353 16.8989C7.99084 16.8562 7.9759 16.8143 7.95876 16.7732L7.93318 16.7135L7.91825 16.6836L7.9012 16.6495C7.78417 16.4238 7.73458 16.1693 7.75837 15.9162C7.77272 15.7723 7.82014 15.6336 7.89693 15.5111C7.93834 15.4462 7.98857 15.3874 8.04616 15.3363C8.07597 15.3103 8.10729 15.2861 8.13996 15.2638L8.19113 15.2361L8.2295 15.2148H8.24655C8.34507 15.1435 8.41588 15.0403 8.44694 14.9227C8.46975 14.859 8.48269 14.7921 8.48532 14.7245C8.4886 14.6926 8.4886 14.6604 8.48532 14.6285C8.48652 14.6129 8.48652 14.5973 8.48532 14.5816V14.5454C8.48532 14.5284 8.48532 14.5113 8.47466 14.4964C8.45151 14.361 8.45732 14.2222 8.49171 14.0892C8.52372 13.9578 8.58251 13.8344 8.66439 13.7268C8.81726 13.5208 9.03381 13.3709 9.28048 13.3004L9.31886 13.2876H9.34444L9.39773 13.2684C9.43194 13.2536 9.46476 13.2358 9.4958 13.2152C9.56145 13.1765 9.62047 13.1276 9.67061 13.0702C9.71692 13.0204 9.75377 12.9626 9.77933 12.8996C9.78889 12.8733 9.79603 12.8462 9.80065 12.8186C9.80065 12.8058 9.80065 12.7952 9.80065 12.7845V12.7462C9.79958 12.7256 9.79958 12.7049 9.80065 12.6843C9.81001 12.5325 9.85848 12.3856 9.94135 12.258C10.0144 12.1429 10.1059 12.0406 10.2121 11.9552C10.4042 11.8022 10.63 11.6969 10.8708 11.6483H10.8921C11.0368 11.6082 11.1703 11.5352 11.2823 11.4351C11.337 11.3907 11.3839 11.3374 11.4208 11.2773C11.4337 11.2537 11.4437 11.2287 11.4507 11.2027C11.4527 11.1922 11.4527 11.1813 11.4507 11.1707C11.4516 11.1658 11.4516 11.1608 11.4507 11.1558V11.1047C11.4627 10.9523 11.5133 10.8056 11.5978 10.6783C11.6707 10.5675 11.7606 10.469 11.8642 10.3862C12.0572 10.2302 12.2832 10.1201 12.5251 10.0643C12.7136 10.0263 12.8843 9.9274 13.0112 9.78293C13.0598 9.72786 13.0909 9.6596 13.1007 9.5868V9.56335V9.54416C13.0901 9.40917 13.1106 9.27355 13.1604 9.14764C13.2215 8.99516 13.3129 8.85664 13.429 8.74047C13.5374 8.6291 13.6643 8.53748 13.8042 8.46973L13.9108 8.42283L13.9641 8.40364H13.9769C14.0216 8.38232 14.0728 8.35674 14.1197 8.32903C14.2161 8.27218 14.3081 8.20804 14.3947 8.13716C14.569 7.99068 14.7187 7.81723 14.8381 7.62339C14.9577 7.4251 15.0454 7.20931 15.0982 6.98385C15.2074 6.51085 15.2198 6.02063 15.1345 5.54274C15.1246 5.5133 15.1264 5.48122 15.1395 5.45307C15.1526 5.42493 15.176 5.40286 15.2048 5.39138C15.2325 5.3809 15.2633 5.38173 15.2904 5.39369C15.3175 5.40565 15.3388 5.42779 15.3498 5.45534V5.47239C15.4473 5.71717 15.5188 5.97155 15.5629 6.23132C15.6106 6.49648 15.6207 6.76704 15.5928 7.03501C15.5928 7.10323 15.5715 7.17145 15.5587 7.2482C15.5459 7.32494 15.5288 7.38463 15.5075 7.45072C15.466 7.58666 15.4125 7.71864 15.3476 7.8451ZM17.0531 6.84315C16.791 6.16656 16.4389 5.52838 16.0064 4.94583C15.8708 4.75235 15.7219 4.56857 15.5608 4.39582C15.4158 4.46492 15.2945 4.57559 15.2125 4.71377C15.1305 4.85194 15.0915 5.01138 15.1003 5.17181C15.0521 4.9452 14.9588 4.73063 14.8258 4.5409C14.6929 4.35117 14.523 4.19018 14.3265 4.06752C14.3265 4.06752 9.60665 3.55376 7.18917 8.68504C5.18526 12.9487 7.08898 19.4315 8.0419 19.8579C8.99482 20.2843 15.0364 17.3274 16.9209 13.019C17.9634 10.6399 17.7545 8.44414 17.0637 6.83675" fill="white"/>
</g>
</g>
<defs>
<clipPath id="clip0">
<rect width="99.9545" height="24" fill="white"/>
</clipPath>
<clipPath id="clip1">
<rect width="22.674" height="22.674" fill="white" transform="translate(0.638672 0.639648)"/>
</clipPath>
</defs>
</svg>