<svg xmlns:xlink="http://www.w3.org/1999/xlink" xmlns="http://www.w3.org/2000/svg" class="icon-40 icon-32-sm mr-16 d-none-sm co-primary" width="40"  height="40" ><defs><symbol id="control-icon" viewBox="0 0 40 40" fill="none" xmlns="http://www.w3.org/2000/svg">
        <circle cx="20" cy="20" r="20" fill="currentColor" opacity="0.1"></circle>
        <path opacity="0.4" d="M15.8056 22.491H14.5566C14.3909 22.491 14.2319 22.5569 14.1147 22.6741C13.9975 22.7913 13.9316 22.9503 13.9316 23.116V23.741H16.4316V23.116C16.4316 23.0339 16.4154 22.9525 16.384 22.8766C16.3525 22.8007 16.3064 22.7318 16.2482 22.6737C16.1901 22.6157 16.1211 22.5696 16.0451 22.5383C15.9692 22.5069 15.8878 22.4909 15.8056 22.491ZM20.1776 18.741C19.7548 18.7356 19.335 18.6683 18.9316 18.541V23.741H21.4316V18.541C21.0258 18.669 20.6032 18.7364 20.1776 18.741Z" fill="currentColor"></path>
        <path d="M27.6726 23.7411H12.6826C12.3513 23.7411 12.0337 23.8727 11.7994 24.1069C11.5652 24.3411 11.4336 24.6588 11.4336 24.9901V28.7371C11.4336 29.0683 11.5652 29.386 11.7994 29.6202C12.0337 29.8545 12.3513 29.9861 12.6826 29.9861H27.6726C28.0038 29.9861 28.3215 29.8545 28.5558 29.6202C28.79 29.386 28.9216 29.0683 28.9216 28.7371V24.9901C28.9216 24.6588 28.79 24.3411 28.5558 24.1069C28.3215 23.8727 28.0038 23.7411 27.6726 23.7411ZM20.1776 18.7411C21.0424 18.7411 21.8878 18.4846 22.6069 18.004C23.3259 17.5235 23.8863 16.8405 24.2171 16.0415C24.5479 15.2424 24.6343 14.3632 24.4654 13.515C24.2964 12.6669 23.8797 11.8879 23.268 11.2765C22.6563 10.6652 21.877 10.2491 21.0287 10.0807C20.1804 9.91236 19.3012 9.99937 18.5024 10.3307C17.7036 10.6621 17.021 11.2229 16.5409 11.9423C16.0609 12.6617 15.805 13.5072 15.8056 14.3721C15.8056 15.5316 16.2662 16.6436 17.0861 17.4635C17.906 18.2835 19.0181 18.7441 20.1776 18.7441V18.7411ZM19.2406 11.8711C19.4259 11.8711 19.6071 11.926 19.7612 12.029C19.9153 12.1319 20.0353 12.2783 20.1063 12.4495C20.1772 12.6207 20.1957 12.8091 20.1596 12.9909C20.1234 13.1726 20.0342 13.3396 19.9032 13.4706C19.7721 13.6017 19.6052 13.6909 19.4234 13.7271C19.2416 13.7632 19.0532 13.7447 18.882 13.6737C18.7108 13.6028 18.5645 13.4827 18.4615 13.3286C18.3585 13.1746 18.3036 12.9934 18.3036 12.8081C18.3036 12.5596 18.4023 12.3212 18.578 12.1455C18.7538 11.9698 18.9921 11.8711 19.2406 11.8711Z" fill="currentColor"></path>
        </symbol></defs><use xlink:href="#control-icon"></use></svg>