<svg xmlns:xlink="http://www.w3.org/1999/xlink" xmlns="http://www.w3.org/2000/svg" class="icon-40 icon-32-sm mr-16 d-none-sm co-primary" width="40"  height="40" ><defs><symbol id="request-icon" viewBox="0 0 40 40" fill="none" xmlns="http://www.w3.org/2000/svg">
        <circle cx="20" cy="20" r="20" fill="currentColor" opacity="0.1"></circle>
        <path opacity="0.4" d="M12.0019 19.5089L12.2019 13.5539C12.2067 13.4074 12.2403 13.2633 12.3008 13.1298C12.3613 12.9963 12.4475 12.876 12.5545 12.7758C12.6614 12.6756 12.7871 12.5975 12.9243 12.5458C13.0614 12.4942 13.2074 12.4701 13.3539 12.4749C13.5004 12.4797 13.6445 12.5133 13.778 12.5738C13.9116 12.6343 14.0318 12.7205 14.132 12.8274C14.2322 12.9344 14.3104 13.0601 14.362 13.1972C14.4136 13.3344 14.4377 13.4804 14.4329 13.6269L14.3849 15.1269L18.4309 9.9269C18.6105 9.69818 18.8722 9.54857 19.1604 9.50991C19.4486 9.47125 19.7405 9.54659 19.9739 9.7199C20.0929 9.81123 20.1926 9.92529 20.2671 10.0554C20.3417 10.1856 20.3897 10.3293 20.4083 10.4781C20.4269 10.6269 20.4158 10.778 20.3755 10.9225C20.3353 11.067 20.2668 11.2021 20.1739 11.3199L17.1739 15.1769L17.3499 15.3139L21.0499 10.5599C21.2295 10.3293 21.4923 10.1784 21.7819 10.1395C22.0716 10.1006 22.3649 10.1769 22.5989 10.3519C22.7178 10.4433 22.8174 10.5574 22.8919 10.6876C22.9663 10.8177 23.0143 10.9614 23.0329 11.1102C23.0515 11.259 23.0404 11.41 23.0002 11.5545C22.9601 11.6989 22.8916 11.834 22.7989 11.9519L19.1099 16.6889L19.2859 16.8259L22.3199 12.9259C22.4996 12.6955 22.7624 12.5448 23.052 12.5059C23.3416 12.467 23.6348 12.5431 23.8689 12.7179C23.9878 12.8093 24.0874 12.9234 24.1619 13.0536C24.2363 13.1837 24.2843 13.3274 24.3029 13.4762C24.3215 13.625 24.3104 13.776 24.2702 13.9205C24.2301 14.0649 24.1616 14.2 24.0689 14.3179L21.8209 17.1629C21.6332 17.0506 21.4167 16.996 21.1982 17.0058C20.9797 17.0155 20.7689 17.0893 20.5919 17.2179L15.7729 20.7179C15.6017 20.8423 15.4625 21.0054 15.3665 21.194C15.2706 21.3826 15.2207 21.5913 15.2209 21.8029V22.7029L12.5209 20.6089C12.3538 20.4795 12.2196 20.3124 12.1294 20.1212C12.0392 19.93 11.9956 19.7202 12.0019 19.5089ZM22.1459 17.4629C22.1039 17.4051 22.0564 17.3515 22.0039 17.3029L22.7149 16.4129C22.8063 16.2939 22.9203 16.1942 23.0505 16.1197C23.1806 16.0451 23.3243 15.9972 23.4731 15.9785C23.622 15.9599 23.773 15.9711 23.9175 16.0113C24.062 16.0515 24.1971 16.1201 24.3149 16.2129C24.5421 16.3969 24.688 16.6626 24.7213 16.953C24.7545 17.2434 24.6726 17.5353 24.4929 17.7659L22.8229 19.9039H20.6889L21.8989 19.0199C22.0176 18.9338 22.118 18.8251 22.1946 18.7001C22.2712 18.5751 22.3224 18.4362 22.3452 18.2914C22.3681 18.1466 22.3622 17.9987 22.3278 17.8562C22.2934 17.7137 22.2313 17.5794 22.1449 17.4609L22.1459 17.4629Z" fill="currentColor"></path>
        <path d="M15.2159 21.805V27.315C15.2166 27.6162 15.3189 27.9083 15.5061 28.1442C15.6934 28.3801 15.9547 28.5459 16.2479 28.615L19.3909 29.354C19.793 29.4486 20.2047 29.4962 20.6179 29.496H24.8179C25.1101 29.496 25.3906 29.3815 25.5993 29.1769C25.808 28.9724 25.9281 28.6941 25.9339 28.402C25.9337 28.2525 25.904 28.1045 25.8465 27.9665C25.7889 27.8285 25.7047 27.7032 25.5985 27.5979C25.4924 27.4926 25.3665 27.4094 25.228 27.3529C25.0896 27.2965 24.9414 27.2679 24.7919 27.269H22.3589V27.046H27.2749C27.4245 27.0464 27.5727 27.0172 27.711 26.9601C27.8494 26.903 27.975 26.8191 28.0808 26.7132C28.1865 26.6073 28.2703 26.4816 28.3273 26.3433C28.3843 26.2049 28.4134 26.0566 28.4129 25.907C28.4071 25.6148 28.287 25.3366 28.0783 25.132C27.8696 24.9275 27.5891 24.8129 27.2969 24.813H22.3589V24.59H28.3589C28.5092 24.5917 28.6584 24.5635 28.7977 24.5071C28.9371 24.4506 29.0638 24.367 29.1706 24.2611C29.2773 24.1552 29.3619 24.0291 29.4195 23.8902C29.477 23.7513 29.5064 23.6023 29.5059 23.452C29.5001 23.1598 29.38 22.8816 29.1713 22.677C28.9626 22.4725 28.6821 22.3579 28.3899 22.358H22.3589V22.135H27.2469C27.3964 22.1355 27.5447 22.1064 27.683 22.0494C27.8213 21.9924 27.9469 21.9086 28.0527 21.8028C28.1585 21.6971 28.2423 21.5714 28.2993 21.4331C28.3563 21.2948 28.3854 21.1466 28.3849 20.997C28.3791 20.7048 28.259 20.4266 28.0503 20.222C27.8416 20.0175 27.5611 19.9029 27.2689 19.903H20.6849L21.8989 19.02C22.1382 18.8459 22.2986 18.5838 22.3447 18.2914C22.3909 17.9991 22.319 17.7003 22.1449 17.461C21.9707 17.2216 21.7087 17.0612 21.4163 17.0151C21.1239 16.969 20.8252 17.0409 20.5859 17.215L15.7669 20.715C15.5955 20.8395 15.4562 21.0028 15.3602 21.1916C15.2642 21.3804 15.2144 21.5892 15.2149 21.801L15.2159 21.805Z" fill="currentColor"></path>
        </symbol></defs><use xlink:href="#request-icon"></use></svg>