<svg id="eyowo-icon" viewBox="0 0 27 27" fill="none" xmlns="http://www.w3.org/2000/svg">
    <path d="M26.228 13.4736C26.228 10.951 25.48 8.48515 24.0785 6.38774C22.6771 4.29034 20.6852 2.65561 18.3547 1.69028C16.0241 0.724948 13.4597 0.472373 10.9857 0.964494C8.5116 1.45662 6.23903 2.67133 4.45533 4.45503C2.67163 6.23872 1.45692 8.51129 0.964799 10.9853C0.472678 13.4594 0.725253 16.0238 1.69058 18.3544C2.65591 20.6849 4.29064 22.6768 6.38805 24.0782C8.48545 25.4797 10.9513 26.2277 13.4739 26.2277C16.8565 26.2277 20.1005 24.8839 22.4924 22.4921C24.8843 20.1002 26.228 16.8562 26.228 13.4736Z" fill="#F2761B"/>
    <path d="M17.2678 8.82562C17.1282 9.11053 16.9417 9.36996 16.7162 9.59307C16.6033 9.70285 16.4823 9.80387 16.354 9.89526C16.2893 9.94083 16.2221 9.984 16.155 10.0248L16.0471 10.0847L16.0207 10.0991H16.0039H15.9847L15.9511 10.1159C15.8583 10.1597 15.7764 10.2236 15.7113 10.303C15.6464 10.3819 15.6005 10.4746 15.577 10.574C15.5655 10.6203 15.5599 10.6678 15.5602 10.7155C15.5578 10.7378 15.5578 10.7603 15.5602 10.7826C15.5602 10.7826 15.5602 10.8042 15.5602 10.8162V10.857C15.61 11.0518 15.6017 11.2569 15.5362 11.447C15.4766 11.6275 15.3764 11.7921 15.2434 11.928C15.1104 12.0639 14.948 12.1676 14.7688 12.2312C14.6227 12.2828 14.4963 12.3783 14.4066 12.5046C14.3657 12.5594 14.3359 12.6216 14.3191 12.6879C14.3022 12.7541 14.2985 12.8231 14.3083 12.8907V12.9219C14.3095 12.9411 14.3095 12.9603 14.3083 12.9795C14.3118 13.0186 14.3118 13.0579 14.3083 13.097C14.3112 13.1775 14.304 13.2581 14.2867 13.3368C14.2565 13.4854 14.197 13.6264 14.1116 13.7517C13.9488 13.9915 13.7122 14.1717 13.4377 14.265L13.3754 14.2865L13.3226 14.3081C13.218 14.3569 13.1267 14.4301 13.0564 14.5216C13.0127 14.5742 12.9802 14.6351 12.9608 14.7006C12.9414 14.7662 12.9356 14.835 12.9437 14.9029V14.9293C12.9448 14.9492 12.9448 14.9693 12.9437 14.9892C12.9472 15.0291 12.9472 15.0693 12.9437 15.1092C12.9459 15.1896 12.9395 15.27 12.9245 15.349C12.8929 15.5005 12.8326 15.6446 12.747 15.7735C12.6655 15.8986 12.5623 16.0082 12.4424 16.0972C12.3839 16.1423 12.3213 16.1816 12.2554 16.2148L12.1546 16.2603L12.1043 16.2795L12.0611 16.2939C11.9332 16.3429 11.8246 16.4322 11.7517 16.5481C11.7124 16.6031 11.6843 16.6653 11.6691 16.7311C11.6539 16.797 11.6518 16.8652 11.663 16.9319L11.6798 17.011C11.6869 17.0482 11.6917 17.0859 11.6942 17.1237C11.7014 17.1979 11.7014 17.2726 11.6942 17.3468C11.6768 17.493 11.6337 17.6351 11.5671 17.7665C11.4344 18.0302 11.2101 18.2366 10.9363 18.3468C10.9163 18.355 10.8953 18.3606 10.8739 18.3636H10.8572C10.833 18.3737 10.8098 18.3857 10.7876 18.3996C10.7426 18.4296 10.7023 18.466 10.6677 18.5075C10.5949 18.5979 10.5484 18.7066 10.5334 18.8217C10.5262 18.8815 10.5262 18.9418 10.5334 19.0016V19.0472C10.5345 19.0543 10.5345 19.0616 10.5334 19.0687V19.0999C10.5475 19.1503 10.5579 19.2016 10.5646 19.2534C10.5908 19.4615 10.567 19.6728 10.495 19.8698C10.4271 20.0733 10.3013 20.2525 10.1329 20.3854C10.1106 20.402 10.0874 20.4172 10.0633 20.431L9.99377 20.4693L9.94101 20.4909L9.90504 20.5125C9.85675 20.5439 9.8145 20.5837 9.78032 20.63C9.70429 20.7397 9.66028 20.8685 9.65321 21.0018C9.64176 21.1448 9.66056 21.2886 9.70837 21.4239V21.443C9.72145 21.485 9.71777 21.5305 9.69809 21.5698C9.67842 21.6092 9.64429 21.6394 9.60285 21.6541C9.5813 21.6617 9.55835 21.6646 9.53558 21.6626C9.51281 21.6605 9.49076 21.6535 9.47094 21.6421C9.43497 21.6205 9.399 21.5989 9.36542 21.575C9.34664 21.5559 9.32977 21.535 9.31506 21.5126L9.27908 21.4622L9.22152 21.3735C9.18555 21.3135 9.14957 21.2536 9.116 21.1888C9.04702 21.0627 8.98847 20.9312 8.94092 20.7955C8.88965 20.6508 8.85741 20.5 8.84499 20.347C8.8429 20.2598 8.85258 20.1727 8.87377 20.088C8.89399 19.9851 8.9393 19.8887 9.00567 19.8074L9.02246 19.7882V19.7714C9.03053 19.7559 9.03774 19.7398 9.04405 19.7235C9.05586 19.6834 9.06468 19.6425 9.07043 19.6012C9.08 19.5039 9.08 19.4059 9.07043 19.3086C9.05855 19.2076 9.03686 19.108 9.00567 19.0112C8.99141 18.9632 8.9746 18.9159 8.95531 18.8697L8.92653 18.8025L8.90974 18.7689L8.89056 18.7306C8.7589 18.4767 8.70311 18.1903 8.72987 17.9056C8.74602 17.7437 8.79937 17.5877 8.88576 17.4499C8.93235 17.3769 8.98885 17.3107 9.05364 17.2532C9.08718 17.224 9.12241 17.1968 9.15917 17.1717L9.21673 17.1405L9.25989 17.1165H9.27908C9.38991 17.0363 9.46957 16.9202 9.50452 16.788C9.53018 16.7162 9.54474 16.641 9.54769 16.5649C9.55138 16.529 9.55138 16.4929 9.54769 16.457C9.54904 16.4394 9.54904 16.4218 9.54769 16.4042V16.3635C9.54769 16.3443 9.54769 16.3251 9.5357 16.3083C9.50966 16.156 9.5162 15.9998 9.55488 15.8502C9.5909 15.7024 9.65703 15.5636 9.74915 15.4425C9.92113 15.2107 10.1647 15.0421 10.4423 14.9629L10.4854 14.9485H10.5142L10.5742 14.9269C10.6126 14.9102 10.6496 14.8902 10.6845 14.8669C10.7583 14.8234 10.8247 14.7684 10.8811 14.7038C10.9332 14.6479 10.9747 14.5828 11.0035 14.512C11.0142 14.4824 11.0222 14.4519 11.0274 14.4208C11.0274 14.4065 11.0274 14.3945 11.0274 14.3825V14.3393C11.0262 14.3161 11.0262 14.2929 11.0274 14.2697C11.038 14.0989 11.0925 13.9337 11.1857 13.7901C11.2679 13.6606 11.3708 13.5456 11.4903 13.4495C11.7065 13.2773 11.9605 13.1589 12.2314 13.1042H12.2554C12.4182 13.059 12.5683 12.977 12.6943 12.8643C12.7559 12.8144 12.8086 12.7544 12.8501 12.6869C12.8646 12.6603 12.8759 12.6321 12.8837 12.6029C12.886 12.591 12.886 12.5788 12.8837 12.567C12.8847 12.5614 12.8847 12.5557 12.8837 12.5502V12.4926C12.8973 12.3213 12.9542 12.1562 13.0492 12.013C13.1312 11.8883 13.2324 11.7775 13.349 11.6844C13.5661 11.5088 13.8204 11.385 14.0925 11.3222C14.3045 11.2794 14.4966 11.1682 14.6393 11.0057C14.6939 10.9437 14.729 10.8669 14.74 10.785V10.7586V10.7371C14.7281 10.5852 14.7511 10.4326 14.8071 10.291C14.8759 10.1194 14.9787 9.9636 15.1093 9.8329C15.2313 9.70761 15.3741 9.60454 15.5314 9.52832L15.6513 9.47556L15.7113 9.45397H15.7257C15.7761 9.42999 15.8336 9.40121 15.8864 9.37003C15.9949 9.30608 16.0983 9.23392 16.1958 9.15419C16.3918 8.9894 16.5603 8.79426 16.6946 8.5762C16.8291 8.35312 16.9278 8.11035 16.9872 7.85671C17.1101 7.32458 17.1239 6.77309 17.028 6.23546C17.0169 6.20234 17.019 6.16625 17.0337 6.13458C17.0484 6.10292 17.0747 6.07809 17.1071 6.06518C17.1383 6.05339 17.1729 6.05432 17.2034 6.06778C17.2339 6.08124 17.2579 6.10615 17.2702 6.13713V6.15632C17.3799 6.43169 17.4603 6.71787 17.51 7.01011C17.5636 7.30842 17.5749 7.6128 17.5436 7.91427C17.5436 7.99101 17.5196 8.06776 17.5052 8.1541C17.4908 8.24044 17.4717 8.30759 17.4477 8.38194C17.401 8.53487 17.3408 8.68335 17.2678 8.82562ZM19.1864 7.69842C18.8916 6.93726 18.4955 6.2193 18.0089 5.56394C17.8564 5.34627 17.6889 5.13952 17.5076 4.94518C17.3444 5.02291 17.2081 5.14742 17.1158 5.30287C17.0236 5.45831 16.9796 5.63768 16.9896 5.81816C16.9354 5.56323 16.8303 5.32183 16.6808 5.10839C16.5312 4.89495 16.3401 4.71383 16.119 4.57584C16.119 4.57584 10.8092 3.99785 8.08953 9.77055C5.83513 14.5671 7.97681 21.8604 9.04884 22.34C10.1209 22.8197 16.9176 19.4932 19.0377 14.6463C20.2105 11.9698 19.9755 9.49954 19.1984 7.69123" fill="white"/>
    <g clip-path="url(#clip0)">
    </g>
    <defs>
    <clipPath id="clip0">
    <rect width="25.5083" height="25.5083" fill="white" transform="translate(0.719727 0.719421)"/>
    </clipPath>
    </defs>
</svg>