<svg xmlns:xlink="http://www.w3.org/1999/xlink" xmlns="http://www.w3.org/2000/svg" class="icon-20" width="20"  height="20" ><defs><symbol id="ig-icon" width="20" height="20" viewBox="0 0 20 20" fill="none" xmlns="http://www.w3.org/2000/svg">
        <path fill-rule="evenodd" clip-rule="evenodd" d="M7 2H13C15.761 2 18 4.239 18 7V13C18 15.761 15.761 18 13 18H7C4.239 18 2 15.761 2 13V7C2 4.239 4.239 2 7 2ZM13 16.5C14.93 16.5 16.5 14.93 16.5 13V7C16.5 5.07 14.93 3.5 13 3.5H7C5.07 3.5 3.5 5.07 3.5 7V13C3.5 14.93 5.07 16.5 7 16.5H13Z" fill="#121212"></path>
        <path fill-rule="evenodd" clip-rule="evenodd" d="M6 10C6 7.791 7.791 6 10 6C12.209 6 14 7.791 14 10C14 12.209 12.209 14 10 14C7.791 14 6 12.209 6 10ZM7.5 10C7.5 11.378 8.622 12.5 10 12.5C11.378 12.5 12.5 11.378 12.5 10C12.5 8.621 11.378 7.5 10 7.5C8.622 7.5 7.5 8.621 7.5 10Z" fill="#121212"></path>
        <circle cx="14.2996" cy="5.69999" r="0.533" fill="#121212"></circle>
        </symbol></defs><use xlink:href="#ig-icon"></use></svg>