<svg xmlns:xlink="http://www.w3.org/1999/xlink" xmlns="http://www.w3.org/2000/svg" width="1140" height="411" viewBox="0 0 1140 411" fill="none">
<mask id="mask0" mask-type="alpha" maskUnits="userSpaceOnUse" x="0" y="0" width="1140" height="411">
<rect width="1140" height="411" fill="#121212"/>
</mask>
<g mask="url(#mask0)">
<path d="M743.19 189.271C743.491 189.727 743.934 190.071 744.451 190.248C744.968 190.426 745.529 190.428 746.047 190.254C746.872 190.254 747.666 189.874 748.459 189.715C749.757 189.472 751.099 189.673 752.269 190.286C754.588 191.579 756.625 193.321 758.261 195.412C759.896 197.502 761.096 199.898 761.792 202.458C765.555 213.096 767.456 224.301 767.41 235.583C767.486 247.12 764.175 258.426 757.887 268.105C751.252 277.629 742.394 285.397 732.08 290.738C721.869 295.919 710.981 299.643 699.733 301.801L695.543 302.657L693.797 302.974L691.956 303.386C692.147 303.386 691.512 302.34 691.48 302.276L690.718 300.755C690.052 299.455 689.385 298.156 688.75 296.824C686.179 291.657 683.703 286.427 681.576 280.975C677.058 270.563 674.766 259.324 674.847 247.977C675.522 236.542 679.082 225.463 685.195 215.771C690.973 206.285 698.166 197.733 706.527 190.412C714.748 183.185 726.779 176.941 737.445 183.122C739.867 184.523 741.822 186.607 743.063 189.113C743.349 189.683 744.174 189.113 743.888 188.637C739 178.811 726.176 178.05 717.192 182.076C712.168 184.525 707.588 187.792 703.638 191.744C699.405 195.685 695.459 199.922 691.829 204.423C684.713 213.03 679.383 222.965 676.148 233.649C673.122 244.943 673.176 256.84 676.307 268.105C678.018 274.413 680.237 280.572 682.941 286.522C684.306 289.692 685.735 292.672 687.227 295.683C688.718 298.694 689.734 301.294 691.321 303.83C691.366 303.901 691.426 303.961 691.498 304.005C691.569 304.049 691.65 304.076 691.734 304.083C694.214 303.748 696.673 303.272 699.099 302.657C702.082 302.054 705.066 301.357 707.987 300.565C713.734 299.064 719.366 297.157 724.842 294.859C736.023 290.32 746.014 283.282 754.046 274.287C761.604 265.574 766.37 254.796 767.728 243.349C768.928 231.4 767.851 219.332 764.553 207.783C763.448 201.875 760.723 196.388 756.681 191.934C754.93 190.218 752.729 189.031 750.332 188.511C748.745 188.289 744.904 190.222 743.984 188.669C743.904 188.564 743.785 188.495 743.654 188.477C743.523 188.459 743.391 188.494 743.285 188.574C743.18 188.654 743.111 188.772 743.093 188.903C743.075 189.034 743.11 189.166 743.19 189.271V189.271Z" fill="#7E7E7E" fill-opacity="0.2"/>
<path d="M766.779 133.388C768.239 136.146 771.667 135.353 774.143 134.783C775.961 134.23 777.835 133.88 779.73 133.737C782.104 133.931 784.405 134.657 786.46 135.86C796.395 140.9 801.95 151.298 805.506 161.409C809.198 172.468 811.969 183.812 813.791 195.327C815.887 207.158 816.833 219.164 816.616 231.178C816.406 254.766 809.229 277.768 795.983 297.301C782.476 316.053 764.726 331.355 744.178 341.964C723.165 352.807 700.722 360.629 677.517 365.199C674.564 365.833 671.581 366.435 668.628 367.005L664.787 367.703C663.623 368.06 662.417 368.263 661.2 368.305C660.883 368.115 660.693 367.322 660.534 367.005L659.582 365.103C658.915 363.804 658.248 362.504 657.613 361.205C656.249 358.479 654.884 355.784 653.55 353.058C648.217 342.281 643.17 331.376 638.79 320.187C630.219 298.156 624.378 274.7 626.092 250.957C628.139 227.555 635.935 205.017 648.789 185.342C654.943 175.596 661.875 166.363 669.517 157.732C676.964 149.097 685.072 141.053 693.769 133.673C702.331 126.002 712.522 120.367 723.576 117.19C729.164 115.685 735.001 115.339 740.728 116.173C746.455 117.007 751.95 119.004 756.875 122.04C761.146 124.865 764.577 128.784 766.811 133.388C767.096 133.959 767.922 133.388 767.636 132.912C765.237 128.361 761.806 124.432 757.618 121.438C753.43 118.444 748.599 116.469 743.511 115.669C732.292 113.723 720.743 115.598 710.72 120.994C700.615 126.491 691.392 133.468 683.357 141.693C674.828 149.892 666.904 158.695 659.645 168.034C644.853 186.398 634.122 207.679 628.156 230.48C622.961 254.049 624.055 278.566 631.33 301.58C634.798 313.188 639.04 324.55 644.027 335.592C649.011 346.75 654.376 357.781 660.058 368.59C660.248 368.971 660.312 369.256 660.724 369.383C661.145 369.363 661.561 369.289 661.962 369.161L664.216 368.749C667.136 368.21 670.057 367.671 672.945 367.069C678.977 365.864 685.008 364.501 690.976 362.98C702.933 359.994 714.665 356.17 726.084 351.537C747.951 342.89 767.746 329.734 784.174 312.928C800.429 296.037 811.281 274.695 815.346 251.623C819.473 227.659 816.806 202.998 811.251 179.477C808.648 168.415 805.823 156.813 799.601 147.177C796.955 142.9 793.414 139.245 789.221 136.463C785.935 133.956 781.859 132.708 777.73 132.944C775.064 133.356 769.096 136.114 767.382 132.944C767.318 132.374 766.398 132.849 766.779 133.388Z" fill="#7E7E7E" fill-opacity="0.2"/>
<path d="M785.217 89.9298C787.216 93.8604 792.327 92.4657 795.724 91.6416C798.264 90.8861 800.886 90.4391 803.533 90.3103C806.904 90.6439 810.158 91.727 813.056 93.4801C826.832 100.644 834.482 115.194 839.339 129.299C844.497 144.87 848.372 160.836 850.925 177.037C853.821 193.58 855.107 210.363 854.766 227.152C854.447 243.783 851.852 260.293 847.053 276.222C842.251 291.626 835.099 306.199 825.848 319.427C806.905 345.712 782.037 367.179 753.251 382.094C724.142 397.69 692.304 407.453 660.116 414.395C656.053 415.283 651.99 416.075 647.927 416.868L642.308 417.914L639.419 418.453C639.007 418.453 637.642 419.023 637.261 418.865C636.88 418.706 636.499 417.438 636.309 417.121C635.928 416.329 635.515 415.536 635.102 414.744L632.15 408.88C630.277 405.171 628.405 401.462 626.563 397.722C619.167 382.697 612.088 367.513 605.994 351.886C593.868 320.948 585.583 287.918 587.773 254.476C589.963 221.542 602.216 190.16 619.516 162.361C628.273 148.503 638.157 135.388 649.07 123.15C659.61 110.992 671.094 99.6823 683.416 89.3275C695.542 79.3425 709.318 70.6255 724.682 66.9168C732.479 64.8801 740.609 64.4508 748.577 65.6552C756.545 66.8596 764.184 69.6725 771.027 73.9221C777.123 77.9156 782.026 83.4791 785.217 90.0249C785.471 90.5955 786.296 90.0249 786.042 89.5494C779.535 76.0776 766.044 67.9946 751.632 65.3319C736.126 62.8611 720.237 65.5686 706.43 73.0346C692.36 80.7726 679.522 90.5584 668.338 102.07C656.43 113.527 645.365 125.826 635.229 138.872C614.945 165.055 598.598 194.788 591.074 227.184C587.268 243.632 585.899 260.549 587.011 277.394C588.287 294.238 591.482 310.882 596.534 327.002C601.521 343.111 607.555 358.877 614.596 374.202C618.12 382.031 621.802 389.765 625.611 397.468C627.42 401.209 629.293 404.917 631.166 408.626C633.039 412.335 634.563 415.98 636.594 419.403C637.007 420.164 637.261 420.069 638.055 419.911C639.896 419.625 641.705 419.277 643.546 418.928C647.673 418.167 651.831 417.375 655.958 416.519C664.296 414.807 672.612 412.895 680.908 410.781C697.387 406.641 713.553 401.345 729.285 394.932C759.864 382.784 787.509 364.286 810.389 340.665C821.469 328.971 830.85 315.782 838.26 301.485C845.669 286.873 850.786 271.211 853.433 255.047C859.083 221.542 855.338 187.054 847.529 154.246C843.878 138.872 839.91 122.548 831.149 109.298C827.384 103.32 822.358 98.2354 816.42 94.3993C813.439 92.5792 810.239 91.1415 806.897 90.12C804.631 89.4814 802.239 89.4269 799.946 89.9615C797.406 90.437 794.93 91.2295 792.391 91.6416C789.851 92.0536 787.47 92.0536 786.232 89.6763C785.756 88.9155 784.931 89.3909 785.217 89.9298Z" fill="#7E7E7E" fill-opacity="0.2"/>
<path d="M802.865 48.1821C805.404 53.0954 811.816 51.3519 816.134 50.3058C819.371 49.3138 822.719 48.7282 826.101 48.5625C830.455 49.034 834.65 50.463 838.386 52.7467C855.94 61.9075 865.717 80.4828 871.907 98.4875C878.483 118.319 883.43 138.652 886.699 159.285C890.388 180.379 892.025 201.78 891.587 223.189C891.181 244.397 887.871 265.45 881.747 285.762C875.602 305.387 866.481 323.956 854.702 340.822C831.18 374.613 798.357 401.334 762.17 420.702C725.094 440.577 684.526 453.098 643.513 461.91C638.339 463.02 633.133 464.066 627.959 465.08L620.817 466.443L617.198 466.982C616.658 466.982 614.944 467.711 614.405 467.489C613.865 467.267 613.357 465.714 613.103 465.207L611.579 462.195C610.31 459.723 609.072 457.219 607.802 454.715C605.432 450.002 603.062 445.258 600.691 440.482C591.168 421.463 582.217 401.968 574.44 382.093C559.012 342.629 548.442 300.565 551.267 257.931C554.029 215.962 569.678 175.927 591.867 140.646C614.233 105.762 641.675 74.3966 673.289 47.5798C688.779 34.9004 706.333 23.7109 726.046 19.0512C745.759 14.3916 767.757 16.5153 784.835 27.7683C792.624 32.8682 798.886 39.9765 802.96 48.3405C803.214 48.8794 804.039 48.3405 803.785 47.8334C795.532 30.6845 778.391 20.4459 760.011 17.0542C740.298 13.9291 720.104 17.383 702.556 26.8807C684.303 36.1367 668.559 49.6719 653.925 63.8094C638.753 78.4038 624.654 94.0718 611.738 110.691C585.931 144.006 565.075 181.918 555.489 223.189C550.645 244.134 548.902 265.675 550.315 287.125C551.901 308.554 555.905 329.736 562.25 350.268C568.589 370.827 576.277 390.946 585.264 410.495C589.74 420.48 594.438 430.338 599.263 440.133C601.612 444.888 603.982 449.632 606.374 454.366C607.548 456.743 608.754 459.089 609.961 461.466C611.167 463.844 611.992 466.031 613.135 468.123C613.706 469.01 613.865 468.852 614.881 468.694C617.198 468.313 619.515 467.869 621.864 467.426C627.134 466.443 632.403 465.429 637.736 464.256C648.402 462.069 659.004 459.659 669.479 456.933C690.481 451.616 711.08 444.826 731.125 436.615C769.693 420.607 805.722 398.038 834.386 367.512C848.508 352.624 860.465 335.829 869.907 317.619C879.333 298.991 885.852 279.033 889.238 258.438C896.412 215.803 891.619 171.901 881.684 130.091C877.017 110.501 872.002 89.929 860.828 72.8752C856.052 65.2455 849.659 58.7536 842.1 53.8561C838.345 51.5423 834.314 49.7104 830.101 48.404C827.231 47.6128 824.209 47.5475 821.308 48.2138C818.133 48.8161 814.959 49.8304 811.785 50.3376C808.61 50.8447 805.436 50.8764 803.785 47.77C803.404 47.136 802.579 47.6115 802.865 48.1821Z" fill="#7E7E7E" fill-opacity="0.2"/>
<path d="M821.974 2.88602C825.148 8.94042 832.989 6.72152 838.258 5.45358C842.261 4.24512 846.397 3.53191 850.574 3.32984C855.955 3.90188 861.139 5.66709 865.748 8.49661C887.428 19.7813 899.491 42.6993 907.014 64.9199C915.134 89.3811 921.239 114.464 925.267 139.918C929.81 165.942 931.83 192.342 931.298 218.752C930.804 244.926 926.713 270.908 919.14 295.97C911.582 320.185 900.341 343.096 885.81 363.9C856.764 405.583 816.26 438.581 771.534 462.482C725.76 486.953 675.732 502.422 625.133 513.199C618.785 514.562 612.436 515.83 605.929 517.067L597.136 518.715L592.565 519.539C591.866 519.539 589.771 520.458 589.073 520.173C588.375 519.888 587.771 518.018 587.454 517.352L585.549 513.643L580.883 504.419C577.963 498.586 575.01 492.722 572.122 486.858C560.472 463.243 549.33 439.31 539.744 414.807C520.698 366.15 507.651 314.228 511.175 261.64C514.571 209.877 533.871 160.459 561.266 116.779C588.873 73.7484 622.732 35.055 661.733 1.96673C680.779 -13.8825 702.492 -27.4811 726.839 -33.3453C751.186 -39.2095 778.295 -36.5152 799.373 -22.5996C808.999 -16.3321 816.736 -7.56568 821.752 2.75919C822.037 3.36146 822.958 2.75925 822.672 2.22037C812.483 -18.9225 791.31 -31.5702 768.708 -35.8178C744.298 -40.2872 719.728 -34.8668 697.857 -23.7407C675.351 -12.2975 655.924 4.37585 637.894 21.81C619.186 39.8121 601.799 59.1345 585.867 79.6279C554.123 120.836 528.316 167.496 516.508 218.372C510.531 244.197 508.392 270.759 510.159 297.206C512.154 323.726 517.181 349.932 525.142 375.311C532.961 400.606 542.431 425.362 553.489 449.422C559.012 461.721 564.821 473.893 570.789 485.97C573.677 491.866 576.598 497.699 579.518 503.563C582.438 509.427 584.787 515.196 588.057 520.49C588.692 521.568 588.882 521.378 590.089 521.187C592.977 520.712 595.834 520.141 598.723 519.634C605.22 518.43 611.727 517.162 618.245 515.83C631.355 513.136 644.433 510.156 657.416 506.796C683.367 500.23 708.825 491.851 733.6 481.723C781.215 462.006 825.656 434.175 860.923 396.517C878.339 378.147 893.085 357.425 904.729 334.959C916.351 312.016 924.381 287.427 928.536 262.053C937.424 209.465 931.488 155.324 919.235 103.75C913.49 79.628 907.3 54.2058 893.523 33.2215C887.632 23.853 879.754 15.8891 870.446 9.89134C865.824 7.02777 860.852 4.76926 855.653 3.17129C852.123 2.18484 848.402 2.0977 844.829 2.91774C838.988 4.05889 826.767 9.60607 823.053 2.37883C822.577 1.74486 821.656 2.28374 821.974 2.88602Z" fill="#7E7E7E" fill-opacity="0.2"/>
<path d="M857.756 -81.9396C861.946 -73.7614 872.644 -76.741 879.722 -78.4527C885.181 -80.1518 890.835 -81.1425 896.546 -81.4007C903.593 -81.4007 911.053 -77.5968 917.148 -74.427C946.542 -59.0849 962.89 -28.0522 973.238 2.0613C984.228 35.1436 992.487 69.0685 997.935 103.496C1004.1 138.747 1006.84 174.511 1006.12 210.288C1005.45 245.743 999.919 280.938 989.681 314.893C979.425 347.669 964.179 378.674 944.479 406.819C905.149 463.337 850.296 508 789.857 540.364C727.862 573.553 660.122 594.474 591.556 609.15C582.922 610.988 574.256 612.764 565.59 614.412L553.655 616.662L547.465 617.772C546.481 617.962 543.687 619.008 542.703 618.596C540.926 617.867 538.831 611.559 537.91 609.721C535.783 605.568 533.688 601.416 531.562 597.231C527.562 589.328 523.604 581.403 519.689 573.458C503.818 541.474 488.835 509.078 475.82 475.858C450.013 409.957 432.364 339.555 437.062 268.392C441.696 198.275 467.821 131.359 504.929 72.1784C542.33 13.9085 588.18 -38.4993 640.981 -83.3342C666.883 -104.699 696.246 -123.211 729.196 -131.167C762.145 -139.124 799.031 -135.415 827.6 -116.586C840.643 -108.072 851.131 -96.1862 857.947 -82.1931C858.296 -81.4324 859.407 -82.1932 859.058 -82.8271C845.281 -111.356 816.617 -128.568 786.048 -134.179C753.035 -140.233 719.736 -132.879 690.151 -117.822C659.678 -102.322 633.362 -79.784 608.952 -56.137C583.619 -31.7527 560.069 -5.58724 538.482 22.1582C495.184 78.0426 460.393 141.376 444.394 210.225C436.283 245.196 433.363 281.167 435.728 316.985C438.356 352.833 445.054 388.267 455.695 422.605C466.287 456.855 479.107 490.379 494.073 522.962C501.564 539.604 509.436 556.087 517.499 572.475C521.404 580.431 525.372 588.324 529.339 596.28L535.339 608.104C536.965 611.912 538.864 615.599 541.021 619.135C542.005 620.53 542.005 620.34 543.719 620.054C547.592 619.42 551.496 618.66 555.369 617.93C564.194 616.324 573.008 614.613 581.811 612.795C599.63 609.161 617.321 605.082 634.886 600.56C669.959 591.667 704.359 580.312 737.83 566.579C802.11 539.889 862.295 502.168 910.164 451.133C933.778 426.298 953.771 398.265 969.556 367.861C985.279 336.758 996.155 303.439 1001.81 269.057C1013.81 197.863 1005.81 124.544 989.11 54.7125C981.333 22.0314 972.921 -12.3615 954.192 -40.8267C946.23 -53.5382 935.58 -64.357 922.989 -72.5251C916.715 -76.3879 909.973 -79.4344 902.927 -81.5909C898.165 -82.9312 893.14 -83.0403 888.325 -81.9079C880.389 -80.418 863.819 -72.8421 858.74 -82.7003C858.454 -83.3343 857.375 -82.6686 857.756 -81.9396Z" fill="#7E7E7E" fill-opacity="0.2"/>
<path d="M896.543 -173.549C901.908 -163.088 915.589 -166.924 924.668 -169.111C931.625 -171.243 938.824 -172.489 946.094 -172.82C955.11 -172.82 964.728 -167.938 972.537 -163.849C1010.25 -144.196 1031.23 -104.351 1044.53 -65.5837C1058.65 -23.1047 1069.27 20.4569 1076.27 64.6652C1084.18 109.889 1087.7 155.768 1086.78 201.666C1085.9 247.136 1078.78 292.27 1065.64 335.814C1052.48 377.869 1032.92 417.651 1007.64 453.764C957.205 526.226 886.83 583.537 809.281 624.935C729.922 667.506 642.85 694.355 554.921 713.184C543.832 715.572 532.733 717.822 521.623 719.935L506.322 722.82L498.386 724.246C496.408 724.939 494.324 725.283 492.228 725.261C491.149 724.944 489.879 721.489 489.308 720.348L486.134 714.008C483.404 708.683 480.705 703.399 478.039 698.159C472.897 688.015 467.818 677.851 462.802 667.665C442.582 626.457 423.218 585.09 406.521 542.456C373.159 457.726 350.558 367.544 356.589 276.157C362.525 186.197 396.046 100.358 443.629 24.4399C467.575 -13.4262 494.572 -49.2797 524.352 -82.7642C553.145 -115.934 584.509 -146.787 618.154 -175.038C651.358 -202.426 689.005 -226.2 731.319 -236.407C773.633 -246.613 820.804 -241.827 857.435 -217.705C874.245 -206.806 887.765 -191.541 896.543 -173.549C896.956 -172.661 898.289 -173.549 897.845 -174.309C880.195 -210.984 843.437 -232.92 804.265 -240.115C761.951 -247.881 719.257 -238.467 681.323 -219.163C642.247 -199.288 608.504 -170.347 577.173 -139.917C544.707 -108.642 514.516 -75.0937 486.832 -39.5276C431.535 31.8573 386.904 113.069 366.366 201.381C355.985 246.229 352.242 292.354 355.256 338.286C358.607 384.114 367.147 429.415 380.714 473.322C394.266 517.314 410.703 560.369 429.916 602.207C439.439 623.54 449.597 644.683 459.945 665.604C464.961 675.769 470.029 685.944 475.15 696.13L482.8 711.282C484.861 716.19 487.247 720.955 489.943 725.546C491.181 727.258 491.149 727.036 493.339 726.655C498.323 725.831 503.307 724.88 508.29 723.961C519.633 721.848 530.934 719.65 542.192 717.368C565.016 712.677 587.744 707.51 610.282 701.677C655.278 690.271 699.415 675.717 742.366 658.123C824.898 623.857 902.066 575.517 963.49 510.123C993.773 478.245 1019.42 442.275 1039.67 403.268C1059.82 363.351 1073.74 320.592 1080.94 276.474C1096.3 185.151 1086.05 91.1334 1064.75 1.58529C1054.78 -40.32 1044.02 -84.4443 1020.09 -120.929C1009.87 -137.173 996.22 -150.988 980.092 -161.408C972.045 -166.349 963.406 -170.258 954.38 -173.041C948.29 -174.731 941.873 -174.872 935.714 -173.454C925.461 -171.488 904.193 -161.788 897.622 -174.5C897.241 -175.165 895.94 -174.404 896.543 -173.549Z" fill="#7E7E7E" fill-opacity="0.2"/>
<path d="M937.052 -269.912C943.654 -257.233 960.478 -261.829 971.62 -264.524C980.201 -267.13 989.072 -268.663 998.031 -269.088C1009.17 -268.93 1021.01 -263.034 1030.66 -258.025C1077.1 -233.776 1102.97 -184.675 1119.35 -137.064C1137.23 -85.1737 1149.26 -30.6206 1158.37 23.4252C1168.12 79.1315 1172.45 135.648 1171.32 192.188C1170.22 248.196 1161.46 303.792 1145.29 357.432C1129.14 409.292 1105.05 458.348 1073.9 502.864C1011.78 592.127 925.084 662.751 829.473 713.881C731.545 766.31 624.475 799.467 516.135 822.575C502.485 825.491 488.804 828.259 475.091 830.88C468.742 832.084 462.552 833.289 456.267 834.43L446.49 836.205C444.649 836.522 440.713 838.044 438.872 837.441C437.03 836.839 435.983 832.813 435.221 831.355L431.19 823.399C427.867 816.827 424.545 810.255 421.222 803.682C414.874 791.193 408.62 778.672 402.462 766.12C377.543 715.402 353.704 664.4 333.134 611.875C292.376 507.714 264.474 396.611 271.902 284.05C279.234 173.105 320.532 67.486 379.162 -26.0561C408.657 -72.7149 441.919 -116.891 478.614 -158.144C514.074 -198.99 552.698 -236.987 594.128 -271.782C635.077 -305.541 681.454 -334.831 733.577 -347.383C785.699 -359.936 843.853 -354.072 889.119 -324.338C909.767 -310.882 926.359 -292.067 937.115 -269.912C937.591 -268.93 939.083 -269.912 938.607 -270.8C916.863 -315.97 871.629 -342.977 823.379 -351.853C771.256 -361.362 718.626 -349.792 671.995 -326.019C623.84 -301.547 582.288 -265.791 543.72 -228.577C503.712 -190.078 466.519 -148.764 432.428 -104.954C364.275 -17.022 309.295 83.0182 283.901 191.871C271.096 247.11 266.486 303.929 270.219 360.506C274.4 417.09 285.007 473.017 301.836 527.209C318.593 581.297 338.856 634.24 362.497 685.701C374.337 712.011 386.749 738.035 399.478 763.901C405.679 776.58 411.921 789.112 418.207 801.495L427.73 820.197C430.264 826.241 433.201 832.108 436.523 837.758C438.015 839.882 437.983 839.565 440.617 839.121C446.776 838.107 452.902 836.903 459.06 835.761C472.985 833.183 486.91 830.478 500.835 827.647C528.927 821.878 556.893 815.506 584.669 808.31C640.098 794.269 694.463 776.325 747.353 754.613C848.932 712.423 944.162 652.861 1019.71 572.316C1056.95 533.041 1088.49 488.737 1113.39 440.704C1138.24 391.594 1155.43 338.98 1164.37 284.684C1183.41 172.186 1170.71 56.4549 1144.43 -53.8874C1132.15 -105.556 1118.88 -159.887 1089.42 -204.804C1076.85 -224.812 1060.03 -241.822 1040.15 -254.634C1030.23 -260.744 1019.56 -265.559 1008.41 -268.961C1000.92 -271.062 993.01 -271.236 985.429 -269.468C972.731 -267.059 946.575 -255.109 938.48 -270.8C938.036 -271.782 936.544 -270.895 937.052 -269.912Z" fill="#7E7E7E" fill-opacity="0.2"/>
<path d="M992.345 -400.953C1000.63 -384.882 1021.71 -390.842 1035.64 -394.202C1046.47 -396.801 1057.61 -400.098 1068.85 -399.939C1082.85 -399.749 1097.73 -392.363 1109.86 -386.023C1168.24 -355.593 1200.71 -293.908 1221.28 -234.093C1243.72 -168.921 1258.86 -100.42 1270.29 -32.5541C1282.52 37.4157 1287.96 108.4 1286.54 179.413C1285.18 249.764 1274.19 319.599 1253.88 386.975C1233.57 452.098 1203.32 513.703 1164.2 569.621C1086.15 681.739 977.267 770.431 857.309 834.652C734.304 900.49 599.807 942.046 463.692 971.145C446.55 974.822 429.366 978.309 412.14 981.606C404.268 983.127 396.375 984.607 388.46 986.044L376.207 988.263C373.858 988.675 368.97 990.577 366.684 989.816C363.16 988.706 358.748 975.647 357.002 972.16C352.77 963.918 348.59 955.666 344.464 947.403C336.549 931.723 328.698 916.001 320.91 900.236C289.611 836.839 259.645 772.46 233.838 706.495C182.636 575.707 147.623 436.139 156.924 294.764C166.098 155.576 217.966 22.7914 291.611 -94.6831C328.665 -153.283 370.44 -208.77 416.521 -260.593C461.343 -311.31 509.307 -360.221 561.62 -403.236C613.044 -445.617 671.293 -482.482 736.78 -498.173C802.266 -513.863 875.308 -506.604 932.001 -469.264C957.939 -452.338 978.786 -428.695 992.314 -400.858C992.853 -399.685 994.599 -400.7 994.028 -401.873C966.728 -458.581 909.94 -492.499 849.342 -503.593C783.95 -515.607 717.956 -501.025 659.326 -471.197C599.013 -440.45 546.7 -395.691 498.26 -348.841C448.051 -300.462 401.375 -248.555 358.589 -193.519C273.073 -83.1131 204.031 42.4761 172.288 179.191C156.198 248.551 150.412 319.896 155.115 390.937C159.749 461.942 174.161 532.027 194.699 600.147C215.729 668.097 241.178 734.604 270.883 799.245C285.77 832.275 301.356 864.956 317.355 897.51C325.1 913.275 332.93 929.008 340.845 944.709L352.717 968.197C356.304 975.234 359.256 983.793 363.764 990.386C365.573 993.017 365.51 992.605 368.779 992.066C376.493 990.767 384.206 989.277 391.92 987.85C409.442 984.617 426.933 981.215 444.392 977.643C479.69 970.416 514.788 962.333 549.684 953.394C619.304 935.757 687.594 913.248 754.048 886.035C881.688 833.035 1001.04 758.227 1096.02 657.109C1142.79 607.805 1182.38 552.179 1213.63 491.865C1244.82 430.057 1266.35 363.843 1277.46 295.525C1301.24 154.277 1285.37 8.84399 1252.42 -129.583C1237.02 -194.438 1220.36 -262.717 1183.35 -319.108C1167.16 -343.801 1146.81 -366.022 1121.54 -381.617C1109.13 -389.287 1095.78 -395.338 1081.83 -399.622C1072.44 -402.256 1062.54 -402.474 1053.04 -400.256C1037.17 -397.086 1004.15 -382.22 993.964 -401.968C993.488 -403.109 991.774 -402.095 992.345 -400.953Z" fill="#7E7E7E" fill-opacity="0.2"/>
<path d="M1050.47 -538.682C1060.5 -519.22 1086.05 -526.447 1102.94 -530.536C1116.11 -533.706 1129.6 -537.7 1143.28 -537.51C1160.3 -537.256 1178.2 -528.285 1193.12 -520.583C1264 -483.622 1303.43 -408.719 1328.44 -336.066C1355.68 -256.82 1374.06 -173.77 1387.93 -91.3859C1402.24 -6.43406 1409.96 79.7857 1407.67 166.005C1405.42 251.243 1393.26 336.416 1367.99 418.008C1343.35 497.118 1306.63 571.96 1259.15 639.897C1164.36 776.2 1032.15 883.753 886.479 961.731C737.127 1041.67 573.839 1092.11 408.678 1127.48C387.855 1131.92 366.999 1136.15 346.112 1140.16C336.526 1142 326.939 1143.8 317.353 1145.55L302.465 1148.24C299.576 1148.75 293.64 1151.07 290.72 1150.12C286.403 1148.72 281.197 1132.9 278.911 1128.66L263.706 1098.61C254.12 1079.59 244.597 1060.48 235.137 1041.29C197.045 964.204 160.763 886.162 129.4 806.092C67.2151 647.251 24.6473 477.855 36.0431 306.176C47.2168 137.192 110.164 -24.0901 199.585 -166.701C244.577 -237.852 295.302 -305.223 351.255 -368.145C405.663 -429.767 463.912 -489.106 527.398 -541.44C589.869 -592.919 660.72 -637.613 740.079 -656.759C819.12 -675.778 908.319 -666.966 977.202 -621.606C1008.69 -601.054 1034 -572.349 1050.43 -538.556C1051.07 -537.256 1053 -538.556 1052.37 -539.697C1019.23 -608.546 950.283 -649.659 876.766 -663.162C797.407 -677.744 717.287 -659.992 646.118 -623.824C572.728 -586.484 509.4 -532.184 450.579 -475.286C389.59 -416.573 332.889 -353.575 280.911 -286.775C177.111 -152.754 93.2764 -0.252858 54.7082 165.72C35.2361 249.872 28.2203 336.42 33.8846 422.604C39.5349 508.792 57.089 593.776 81.9758 676.509C106.863 759.242 139.114 839.534 174.412 918.209C192.474 958.308 211.425 998.058 230.82 1037.55C240.259 1056.7 249.782 1075.81 259.389 1094.9C264.151 1104.41 268.912 1113.92 273.769 1123.43L280.848 1137.4C282.585 1141.81 284.709 1146.05 287.196 1150.08C289.609 1153.25 289.038 1152.75 293.196 1152.08C302.719 1150.5 311.956 1148.69 321.321 1146.95C342.483 1143.04 363.709 1138.91 384.998 1134.58C427.851 1125.81 470.472 1116 512.86 1105.13C597.375 1083.72 680.272 1056.38 760.934 1023.32C915.937 959.005 1060.81 868.189 1176.14 745.421C1232.93 685.56 1281.01 618.026 1318.98 544.802C1356.87 469.979 1383.07 389.804 1396.66 307.063C1425.58 135.575 1406.18 -40.9853 1366.31 -209.05C1347.58 -287.789 1327.36 -370.713 1282.45 -439.118C1262.76 -469.104 1238 -496.175 1207.4 -515.004C1192.34 -524.301 1176.15 -531.641 1159.22 -536.844C1147.83 -540.028 1135.82 -540.289 1124.3 -537.605C1104.87 -533.928 1064.91 -515.669 1052.5 -539.729C1051.73 -541.028 1049.8 -539.95 1050.47 -538.682Z" fill="#7E7E7E" fill-opacity="0.2"/>
<path d="M1119.67 -702.69C1131.79 -679.201 1162.68 -687.95 1183.16 -692.863C1199.03 -696.699 1215.44 -701.549 1231.98 -701.295C1252.58 -701.01 1274.48 -690.137 1292.29 -680.818C1378 -636.091 1425.8 -545.434 1456.05 -457.502C1489 -361.805 1511.22 -261.131 1528.05 -161.439C1545.35 -58.6726 1554.68 45.7104 1551.92 149.998C1549.22 253.145 1534.46 356.228 1503.92 454.937C1474.08 550.62 1429.65 641.136 1372.19 723.296C1257.5 888.128 1097.54 1018.35 921.241 1112.71C740.526 1209.49 542.955 1270.51 343.099 1313.33C317.895 1318.72 292.659 1323.83 267.391 1328.67C255.795 1330.91 244.155 1333.09 232.474 1335.2L214.444 1338.37C210.92 1339.01 203.778 1341.76 200.191 1340.62C194.89 1338.91 188.509 1319.83 185.843 1314.63C179.716 1302.52 173.558 1290.38 167.463 1278.24C155.845 1255.19 144.312 1232.09 132.863 1208.95C86.8671 1115.63 42.8708 1021.2 4.93749 924.296C-70.1673 732.204 -121.623 527.21 -107.91 319.49C-94.3874 115.13 -18.2034 -80.1324 90.0096 -252.572C144.427 -338.682 205.8 -420.207 273.518 -496.333C339.354 -570.856 409.824 -642.685 486.643 -706.018C562.224 -768.274 647.835 -822.383 744.05 -845.491C839.724 -868.504 947.651 -857.854 1031.01 -802.984C1069.11 -778.18 1099.75 -743.517 1119.67 -702.69C1120.4 -701.2 1122.59 -702.5 1121.86 -703.958C1081.77 -787.261 998.377 -837.091 909.432 -853.321C813.409 -870.977 716.528 -849.549 630.44 -805.773C541.559 -760.603 465.026 -694.829 393.857 -626.043C320.105 -554.989 251.534 -478.761 188.668 -397.941C62.9961 -235.772 -38.4557 -51.2869 -85.0866 149.554C-108.699 251.459 -117.201 356.272 -110.323 460.643C-103.498 564.963 -82.2615 667.887 -52.1688 767.864C-22.0761 867.841 16.8412 965.092 59.6948 1060.31C81.5342 1108.81 104.453 1156.84 127.943 1204.57C139.328 1227.82 150.84 1250.94 162.48 1273.93L179.907 1308.42L188.478 1325.31C190.89 1330.04 192.826 1336.66 196.128 1340.81C199.429 1344.97 198.286 1343.98 203.302 1343.16C214.634 1341.29 225.966 1339.07 237.267 1336.82C263 1332.11 288.702 1327.12 314.372 1321.86C366.209 1311.21 417.823 1299.45 469.057 1286.2C571.321 1260.31 671.625 1227.24 769.222 1187.23C956.857 1109.48 1132.02 999.517 1271.53 851.073C1340.22 778.656 1398.38 696.951 1444.28 608.358C1490.13 517.781 1521.83 420.726 1538.27 320.568C1573.19 113.101 1549.92 -100.514 1501.54 -303.892C1478.88 -398.987 1454.43 -499.344 1399.96 -582.236C1376.19 -618.499 1346.35 -651.116 1309.24 -674.161C1291.02 -685.401 1271.43 -694.274 1250.96 -700.566C1236.77 -704.909 1223.22 -704.243 1208.74 -701.517C1185.19 -697.016 1136.81 -674.954 1121.76 -704.085C1121.13 -705.384 1118.94 -704.085 1119.67 -702.69Z" fill="#7E7E7E" fill-opacity="0.2"/>
<path d="M1182.9 -852.403C1196.9 -825.269 1232.64 -835.413 1256.23 -841.087C1274.7 -845.525 1293.65 -851.135 1312.79 -850.882C1336.7 -850.533 1362.06 -837.949 1382.63 -827.14C1482.02 -775.313 1537.35 -670.232 1572.42 -568.354C1610.52 -457.409 1636.32 -340.886 1655.78 -225.408C1675.87 -106.317 1686.67 14.6442 1683.49 135.447C1680.32 254.95 1663.24 374.358 1627.88 488.726C1593.29 599.567 1541.81 704.428 1475.26 799.624C1342.54 990.512 1157.22 1141.49 952.952 1250.82C743.604 1362.87 514.894 1433.59 283.167 1483.14C254.006 1489.48 224.77 1495.42 195.46 1500.95C182.022 1503.51 168.595 1506.02 155.178 1508.5L134.291 1512.27C130.164 1513 121.911 1516.2 117.721 1514.84C111.372 1512.84 104.135 1490.81 101.056 1484.72C93.9239 1470.67 86.8134 1456.62 79.7241 1442.56C66.2649 1415.87 52.9115 1389.11 39.664 1362.27C-13.6331 1254.18 -64.6129 1144.79 -108.577 1032.61C-195.681 809.895 -255.295 572.378 -239.392 331.724C-223.742 94.8096 -135.496 -131.264 -10.1096 -331.218C52.9616 -430.98 124.092 -525.428 202.571 -613.619C278.755 -699.965 360.462 -783.142 449.471 -856.492C537.019 -928.67 636.217 -991.338 747.699 -1018.15C858.452 -1044.88 983.584 -1032.55 1080.15 -968.958C1124.35 -940.144 1159.87 -899.865 1182.9 -852.435C1183.66 -850.882 1186.07 -852.245 1185.25 -853.83C1138.84 -950.256 1042.25 -1007.85 939.239 -1026.78C828.137 -1047.22 715.829 -1022.4 616.091 -971.653C513.275 -919.319 424.489 -843.211 342.051 -763.489C256.596 -681.201 177.141 -592.917 104.293 -499.314C-41.2181 -311.438 -158.732 -97.7268 -212.759 134.908C-240.092 252.93 -249.931 374.318 -241.963 495.193C-234.091 615.964 -209.49 735.213 -174.604 851.039C-139.718 966.865 -94.7056 1079.49 -45.0273 1189.71C-19.6326 1245.91 6.80963 1301.54 34.0137 1356.82C47.2189 1383.7 60.5617 1410.5 74.042 1437.21C80.7505 1450.52 87.48 1463.82 94.2308 1477.12L104.166 1496.7C106.96 1502.19 109.214 1509.83 112.991 1514.65C116.165 1518.86 115.404 1518.29 121.181 1517.34C134.323 1515.15 147.464 1512.59 160.574 1510.18C190.371 1504.68 220.135 1498.89 249.868 1492.81C309.927 1480.51 369.657 1466.77 429.06 1451.6C547.335 1421.07 663.96 1383.8 776.808 1336.94C994.028 1246.79 1197.06 1119.53 1358.66 947.466C1437.67 863.37 1506.17 769.067 1558.65 666.301C1611.75 561.37 1648.47 448.946 1667.53 332.928C1708.03 92.6224 1680.99 -154.847 1624.96 -390.398C1598.71 -500.709 1570.39 -616.789 1507.51 -712.835C1479.99 -754.804 1445.42 -792.588 1402.44 -819.12C1381.34 -832.133 1358.66 -842.401 1334.95 -849.677C1318.54 -854.717 1302.83 -853.956 1286.1 -850.787C1258.77 -845.588 1202.68 -819.976 1185.22 -853.956C1184.46 -855.351 1182.23 -853.956 1182.9 -852.403Z" fill="#7E7E7E" fill-opacity="0.2"/>
</g>
</svg>