<svg xmlns:xlink="http://www.w3.org/1999/xlink" xmlns="http://www.w3.org/2000/svg" width="460" height="241" viewBox="0 0 460 241" fill="none">
<g opacity="0.32" clip-path="url(#clip0)">
<path opacity="0.34" d="M0 0C24.0523 31.1372 105.482 97.4731 238.782 113.719C405.408 134.026 457.626 166.147 460 170.578" stroke="#121212"/>
<path opacity="0.34" d="M0 7.82471C24.0523 38.9619 105.482 105.298 238.782 121.543C405.408 141.85 457.626 172.028 460 176.459" stroke="#121212"/>
<path opacity="0.34" d="M0 15.6493C24.0523 46.7865 105.482 113.122 238.782 129.368C405.408 149.675 457.626 177.91 460 182.34" stroke="#121212"/>
<path opacity="0.34" d="M0 23.474C24.0523 54.6112 105.482 120.947 238.782 137.193C405.408 157.5 457.626 184.762 460 189.193" stroke="#121212"/>
<path opacity="0.34" d="M0 31.2987C24.0523 62.4359 105.482 128.772 238.782 145.017C405.408 165.324 457.626 191.615 460 196.046" stroke="#121212"/>
<path opacity="0.34" d="M0 39.1234C24.0523 70.2607 105.482 136.597 238.782 152.842C405.408 173.149 457.626 199.44 460 203.871" stroke="#121212"/>
<path opacity="0.34" d="M0 46.948C24.0523 78.0852 105.482 144.421 238.782 160.667C405.408 180.974 457.626 207.265 460 211.695" stroke="#121212"/>
<path opacity="0.34" d="M0 54.7727C24.0523 85.9099 105.482 152.246 238.782 168.491C405.408 188.798 457.626 215.089 460 219.52" stroke="#121212"/>
<path opacity="0.34" d="M0 62.5974C24.0523 93.7347 105.482 160.071 238.782 176.316C405.408 196.623 457.626 221.942 460 226.373" stroke="#121212"/>
<path opacity="0.34" d="M0 70.4221C24.0523 101.559 105.482 167.895 238.782 184.141C405.408 204.448 457.626 229.767 460 234.198" stroke="#121212"/>
</g>
<defs>
<clipPath id="clip0">
<rect width="460" height="241" fill="white"/>
</clipPath>
</defs>
</svg>