<svg xmlns:xlink="http://www.w3.org/1999/xlink" xmlns="http://www.w3.org/2000/svg" width="495" height="570" viewBox="0 0 495 570" fill="none">
<g opacity="0.45" clip-path="url(#clip0)">
<path d="M532.581 444.499C530.281 440.029 524.441 441.659 520.581 442.599C517.581 443.309 514.581 444.219 511.451 444.179C507.611 444.129 503.521 442.089 500.181 440.349C484.111 431.959 475.181 414.939 469.501 398.439C463.321 380.439 459.141 361.539 455.991 342.799C452.616 323.489 451.116 303.898 451.511 284.299C451.881 264.884 454.909 245.611 460.511 227.019C466.104 209.044 474.439 192.04 485.221 176.609C506.731 145.669 536.741 121.189 569.811 103.459C603.711 85.2887 640.811 73.8187 678.281 65.7787C683.008 64.772 687.744 63.812 692.491 62.8987C694.664 62.4787 696.841 62.0687 699.021 61.6687L702.401 61.0587C702.941 60.9587 704.461 60.3887 705.011 60.6087C706.011 61.0087 707.121 64.4587 707.631 65.4687C708.791 67.7353 709.944 70.012 711.091 72.2987C713.271 76.6387 715.434 80.972 717.581 85.2987C726.211 102.829 734.461 120.559 741.581 138.769C755.691 174.879 765.351 213.389 762.771 252.419C760.241 290.839 745.951 327.489 725.651 359.909C715.439 376.083 703.924 391.397 691.221 405.699C678.946 419.865 665.571 433.039 651.221 445.099C637.061 456.799 621.001 466.949 602.971 471.299C584.941 475.649 564.821 473.619 549.201 463.299C542.06 458.638 536.322 452.122 532.601 444.449C532.401 444.039 531.791 444.399 531.991 444.809C539.531 460.479 555.211 469.859 571.931 472.929C589.931 476.249 608.191 472.219 624.381 463.929C641.051 455.429 655.441 443.069 668.811 430.129C682.663 416.768 695.542 402.435 707.351 387.239C730.931 356.759 749.971 322.069 758.721 284.319C763.133 265.203 764.724 245.545 763.441 225.969C761.996 206.361 758.333 186.981 752.521 168.199C746.728 149.427 739.713 131.054 731.521 113.199C727.421 104.079 723.121 95.0587 718.711 86.0787C716.571 81.732 714.408 77.3987 712.221 73.0787C711.141 70.9086 710.051 68.7587 708.961 66.5987C707.961 64.6587 707.171 62.2587 705.911 60.5087C705.381 59.7587 705.381 59.8587 704.441 60.0087C702.311 60.3686 700.181 60.7787 698.061 61.1687C693.231 62.0687 688.401 62.9987 683.591 63.9887C673.861 65.9887 664.171 68.1987 654.591 70.6887C635.397 75.5552 616.57 81.7707 598.251 89.2887C563.041 103.919 530.131 124.579 503.931 152.509C491.034 166.128 480.114 181.491 471.491 198.149C462.868 215.164 456.899 233.398 453.791 252.219C447.221 291.219 451.601 331.399 460.681 369.639C464.941 387.549 469.531 406.389 479.741 421.979C484.091 428.92 489.912 434.822 496.791 439.269C500.23 441.397 503.927 443.077 507.791 444.269C510.401 444.996 513.152 445.055 515.791 444.439C520.141 443.619 529.201 439.439 531.981 444.879C532.181 445.259 532.791 444.899 532.581 444.499Z" fill="#F2761B"/>
<path d="M469.071 461.099C466.561 456.229 460.181 458.019 455.951 459.039C452.691 459.829 449.341 460.819 445.951 460.769C441.741 460.709 437.261 458.479 433.611 456.579C416.031 447.399 406.251 428.789 400.041 410.739C393.281 391.069 388.721 370.379 385.271 349.899C381.585 328.773 379.944 307.34 380.371 285.899C380.783 264.664 384.097 243.586 390.221 223.249C396.339 203.599 405.445 185.008 417.221 168.129C440.751 134.279 473.571 107.519 509.73 88.129C546.79 68.269 587.38 55.739 628.38 46.969C633.554 45.8623 638.734 44.809 643.92 43.809C646.3 43.349 648.68 42.909 651.06 42.469L654.76 41.799C655.44 41.679 656.93 41.0989 657.63 41.3189C658.13 41.4789 658.711 43.079 658.991 43.619L660.521 46.619C661.781 49.1123 663.037 51.6023 664.29 54.0889C666.677 58.8289 669.044 63.5789 671.391 68.3389C680.831 87.4989 689.851 106.899 697.641 126.809C713.071 166.289 723.641 208.409 720.811 251.089C718.041 293.089 702.411 333.189 680.211 368.639C669.047 386.328 656.459 403.077 642.571 418.719C629.061 434.029 614.571 448.789 598.831 461.809C583.331 474.599 565.831 485.699 546.051 490.459C526.271 495.219 504.311 492.999 487.231 481.729C479.417 476.628 473.14 469.496 469.071 461.099C468.871 460.689 468.261 461.099 468.461 461.459C476.691 478.599 493.831 488.839 512.101 492.199C531.841 495.829 551.741 491.429 569.441 482.409C587.661 473.119 603.441 459.609 618.011 445.459C633.155 430.858 647.235 415.191 660.141 398.579C685.931 365.239 706.751 327.319 716.321 286.039C721.163 265.093 722.908 243.551 721.501 222.099C720.101 200.659 715.741 179.499 709.561 158.939C703.211 138.42 695.528 118.337 686.56 98.8189C682.07 88.8189 677.37 78.979 672.56 69.169C670.22 64.4089 667.857 59.6556 665.47 54.909L661.9 47.8289C660.82 45.7089 659.9 43.099 658.57 41.169C658 40.359 658 40.4789 656.99 40.6489C654.66 41.0289 652.34 41.489 649.99 41.919C644.704 42.8856 639.43 43.909 634.17 44.989C623.53 47.179 612.94 49.5989 602.42 52.3189C581.435 57.6447 560.851 64.4415 540.821 72.659C502.321 88.659 466.34 111.239 437.7 141.779C423.596 156.667 411.656 173.465 402.231 191.679C392.818 210.303 386.309 230.257 382.931 250.849C375.751 293.499 380.541 337.409 390.471 379.219C395.121 398.799 400.141 419.409 411.301 436.449C416.191 443.909 422.301 450.629 429.961 455.339C433.711 457.66 437.744 459.488 441.961 460.779C444.801 461.576 447.798 461.642 450.671 460.969C455.451 460.059 465.361 455.529 468.421 461.459C468.661 461.869 469.281 461.509 469.071 461.099Z" fill="#F2761B"/>
<path d="M414.018 476.699C411.308 471.449 404.438 473.379 399.878 474.479C396.348 475.329 392.738 476.409 389.078 476.349C384.518 476.289 379.678 473.879 375.728 471.819C356.728 461.899 346.158 441.819 339.458 422.279C332.148 401.039 327.228 378.689 323.458 356.559C319.475 333.743 317.703 310.595 318.168 287.439C318.612 264.499 322.192 241.728 328.808 219.759C335.416 198.522 345.262 178.432 357.998 160.199C383.418 123.639 418.868 94.7087 457.938 73.7687C497.998 52.2987 541.788 38.7687 586.088 29.2587C591.668 28.0587 597.265 26.9221 602.878 25.8487C605.448 25.3487 608.008 24.8487 610.588 24.3987L614.588 23.6687C615.338 23.5387 616.948 22.9187 617.708 23.1587C618.278 23.3387 618.888 25.0487 619.188 25.6487L620.848 28.9087L624.958 36.9687C627.525 42.0887 630.082 47.2187 632.628 52.3587C642.818 73.0687 652.568 94.0187 660.978 115.529C677.658 158.189 689.058 203.689 685.978 249.799C682.978 295.179 666.098 338.489 642.118 376.799C630.054 395.906 616.449 413.997 601.438 430.889C586.848 447.439 571.228 463.379 554.188 477.439C537.448 491.259 518.478 503.259 497.188 508.439C475.898 513.619 452.098 511.189 433.628 499.009C425.19 493.493 418.409 485.789 414.008 476.719C413.808 476.309 413.188 476.659 413.388 477.069C422.288 495.579 440.788 506.639 460.528 510.269C481.838 514.189 503.328 509.429 522.438 499.699C542.128 489.699 559.118 475.069 574.898 459.789C591.258 444.011 606.47 427.084 620.418 409.139C648.268 373.139 670.758 332.139 681.098 287.579C686.327 264.956 688.21 241.688 686.688 218.519C685.178 195.359 680.468 172.519 673.798 150.299C667.128 128.079 658.498 106.499 648.988 85.3587C644.148 74.5887 639.068 63.9187 633.858 53.3587C631.338 48.2054 628.785 43.072 626.198 37.9587C624.918 35.3987 623.632 32.8454 622.338 30.2987C621.178 28.0087 620.218 25.2087 618.748 23.1087C618.138 22.2487 618.158 22.3787 617.078 22.5487C614.558 22.9687 612.078 23.4587 609.538 23.9287C603.825 24.9821 598.128 26.0887 592.448 27.2487C580.955 29.6087 569.525 32.2487 558.158 35.1687C535.486 40.9312 513.248 48.2827 491.608 57.1688C450.028 74.4588 411.158 98.8488 380.218 131.839C364.992 147.924 352.099 166.068 341.918 185.739C331.747 205.853 324.716 227.406 321.068 249.649C313.318 295.719 318.488 343.149 329.218 388.309C334.218 409.459 339.658 431.719 351.718 450.119C356.998 458.179 363.618 465.429 371.858 470.529C375.908 472.992 380.252 474.934 384.788 476.309C387.851 477.168 391.081 477.24 394.178 476.519C399.358 475.519 410.078 470.629 413.378 477.049C413.608 477.459 414.218 477.099 414.018 476.699Z" fill="#F2761B"/>
<path d="M354.678 495.789C351.738 490.079 344.248 492.199 339.298 493.389C335.448 494.319 331.488 495.489 327.498 495.389C322.498 495.309 317.238 492.689 312.928 490.389C292.188 479.569 280.648 457.619 273.328 436.329C265.328 413.149 259.988 388.769 255.928 364.629C251.576 339.734 249.641 314.476 250.148 289.209C250.808 264.209 254.368 239.259 261.758 215.359C268.969 192.183 279.712 170.259 293.608 150.359C321.348 110.459 360.028 78.8988 402.608 56.0488C446.308 32.6188 494.088 17.8387 542.428 7.47873C548.515 6.17874 554.618 4.93869 560.738 3.75869C563.538 3.21871 566.338 2.69875 569.148 2.17873L573.508 1.38869C574.338 1.23867 576.078 0.568685 576.928 0.838704C578.178 1.23873 579.748 5.8387 580.368 7.11873L584.818 15.9287C587.625 21.5154 590.415 27.112 593.188 32.7187C604.308 55.3187 614.948 78.1787 624.128 101.649C642.368 148.299 654.788 197.969 651.488 248.249C648.228 297.769 629.798 345.029 603.628 386.819C590.466 407.658 575.627 427.39 559.258 445.819C543.328 463.869 526.258 481.269 507.708 496.599C489.438 511.679 468.708 524.779 445.468 530.389C422.348 535.969 396.258 533.389 376.108 520.099C366.892 514.076 359.485 505.664 354.678 495.759C354.478 495.349 353.868 495.759 354.068 496.119C363.768 516.309 383.948 528.359 405.468 532.319C428.708 536.599 452.158 531.409 472.988 520.789C494.468 509.849 512.988 493.929 530.218 477.249C548.064 460.042 564.656 441.582 579.868 422.009C610.258 382.729 634.788 338.009 646.068 289.389C651.776 264.709 653.831 239.325 652.168 214.049C650.518 188.789 645.388 163.849 638.108 139.639C630.828 115.429 621.418 91.8587 611.048 68.7887C605.758 57.0387 600.218 45.4087 594.538 33.8487C591.778 28.2354 588.991 22.6354 586.178 17.0487C584.791 14.262 583.388 11.4787 581.968 8.69869C580.698 6.18868 579.648 3.1487 578.048 0.848713C577.398 -0.0812791 577.428 0.0686843 576.268 0.258687C573.518 0.71871 570.778 1.25869 568.038 1.75869C561.818 2.91201 555.605 4.12203 549.398 5.3887C536.858 7.95871 524.398 10.8087 511.988 14.0187C487.25 20.2984 462.986 28.3184 439.378 38.0187C394.028 56.8688 351.628 83.4787 317.878 119.459C301.26 137.006 287.192 156.803 276.088 178.269C264.991 200.204 257.322 223.71 253.348 247.969C244.888 298.229 250.528 349.969 262.238 399.229C267.718 422.309 273.628 446.579 286.778 466.659C292.538 475.449 299.778 483.359 308.778 488.909C313.191 491.633 317.932 493.783 322.888 495.309C326.224 496.245 329.743 496.324 333.118 495.539C338.798 494.459 350.488 489.109 354.118 496.139C354.278 496.559 354.888 496.199 354.678 495.789Z" fill="#F2761B"/>
<path d="M291.329 513.229C288.169 507.099 280.119 509.379 274.799 510.659C270.659 511.659 266.399 512.919 262.099 512.859C256.739 512.779 251.099 509.949 246.399 507.519C224.079 495.869 211.659 472.239 203.789 449.329C195.209 424.329 189.419 398.149 185.049 372.159C180.355 345.36 178.259 318.17 178.789 290.969C179.499 264.089 183.339 237.219 191.289 211.499C199.052 186.562 210.614 162.971 225.569 141.559C255.419 98.6187 297.049 64.6587 342.929 40.0587C389.929 14.8487 441.389 -1.0613 493.399 -12.2113C499.959 -13.6114 506.529 -14.9447 513.109 -16.2113C516.115 -16.7914 519.115 -17.358 522.109 -17.9114L526.799 -18.7613C527.709 -18.9213 529.579 -19.6513 530.499 -19.3514C531.859 -18.9114 533.499 -13.9214 534.219 -12.5813L539.009 -3.10136C542.029 2.89864 545.029 8.92195 548.009 14.9686C560.009 39.2886 571.429 63.8887 581.299 89.1487C600.879 139.239 614.299 192.669 610.699 246.809C607.279 300.119 587.449 350.969 559.289 395.969C545.121 418.411 529.145 439.658 511.519 459.499C494.389 478.929 476.049 497.649 456.049 514.149C436.389 530.379 414.109 544.479 389.049 550.509C363.989 556.539 336.049 553.739 314.379 539.439C304.454 532.961 296.479 523.904 291.309 513.239C291.109 512.829 290.499 513.189 290.699 513.599C301.129 535.309 322.839 548.279 345.999 552.539C370.999 557.139 396.219 551.539 418.639 540.129C441.749 528.359 461.699 511.229 480.219 493.289C499.423 474.771 517.278 454.903 533.649 433.839C566.339 391.569 592.749 343.479 604.879 291.129C611.027 264.573 613.241 237.258 611.449 210.059C609.679 182.879 604.149 156.059 596.309 129.989C588.469 103.919 578.359 78.5686 567.199 53.7586C561.509 41.1087 555.549 28.5986 549.429 16.1486C546.469 10.1087 543.469 4.08193 540.429 -1.93138C538.929 -4.93138 537.429 -7.93138 535.899 -10.9314L533.659 -15.3413C533.112 -16.7313 532.442 -18.0699 531.659 -19.3413C530.899 -20.3413 531.079 -20.1813 529.769 -19.9613C526.769 -19.4714 523.859 -18.9013 520.919 -18.3514C514.252 -17.118 507.565 -15.818 500.859 -14.4513C487.359 -11.6713 473.929 -8.61135 460.589 -5.16134C433.971 1.59178 407.863 10.2131 382.459 20.6387C333.649 40.9287 288.029 69.5587 251.709 108.279C233.82 127.158 218.672 148.456 206.709 171.549C194.77 195.153 186.518 220.446 182.239 246.549C173.139 300.629 179.239 356.309 191.799 409.319C197.699 434.139 204.069 460.269 218.219 481.869C224.409 491.329 232.219 499.869 241.839 505.799C246.585 508.732 251.686 511.047 257.019 512.689C260.606 513.699 264.391 513.782 268.019 512.929C274.139 511.769 286.729 506.019 290.639 513.599C290.919 513.969 291.539 513.629 291.329 513.229Z" fill="#F2761B"/>
<path d="M222.659 531.489C219.279 524.919 210.659 527.369 204.939 528.739C200.489 529.819 195.939 531.179 191.289 531.109C185.529 531.029 179.409 527.979 174.419 525.379C150.419 512.859 137.089 487.469 128.629 462.849C119.419 436.059 113.199 407.849 108.509 379.969C103.659 351.189 101.059 321.969 101.829 292.769C102.589 263.889 106.709 235.029 115.249 207.399C123.588 180.61 136.011 155.268 152.079 132.269C184.139 86.1488 228.859 49.6588 278.149 23.2688C328.669 -3.84125 383.899 -20.9313 439.789 -32.9113C446.829 -34.4179 453.886 -35.8513 460.959 -37.2113C464.199 -37.8313 467.439 -38.438 470.679 -39.0313L475.679 -39.9513C476.679 -40.1213 478.679 -40.9513 479.679 -40.5713C481.159 -40.0913 482.949 -34.7513 483.679 -33.3013L488.789 -23.1113C492.036 -16.658 495.259 -10.1913 498.459 -3.71129C511.319 22.4187 523.619 48.8488 534.229 75.9787C555.229 129.779 569.639 187.179 565.809 245.329C562.029 302.579 540.739 357.209 510.479 405.529C495.263 429.638 478.103 452.464 459.169 473.779C440.769 494.649 421.069 514.779 399.589 532.479C378.459 549.919 354.529 565.059 327.589 571.549C300.649 578.039 270.789 574.969 247.449 559.639C236.784 552.68 228.214 542.948 222.659 531.489C222.459 531.079 221.849 531.489 222.049 531.849C233.259 555.169 256.569 569.099 281.439 573.669C308.289 578.609 335.37 572.609 359.439 560.349C384.259 547.699 405.689 529.299 425.579 510.029C446.21 490.143 465.389 468.805 482.969 446.179C518.089 400.779 546.439 349.129 559.479 292.899C566.06 264.374 568.419 235.038 566.479 205.829C564.579 176.629 558.639 147.829 550.229 119.829C541.819 91.8287 530.989 64.6087 518.999 37.9687C512.899 24.3887 506.489 10.9687 499.919 -2.42131C496.739 -8.91465 493.519 -15.388 490.259 -21.8413C488.649 -25.0613 487.019 -28.2813 485.399 -31.4913L482.999 -36.2313C482.319 -37.5513 481.779 -39.4013 480.859 -40.5613C479.939 -41.7213 480.259 -41.4513 478.859 -41.2213C475.689 -40.6913 472.519 -40.0713 469.359 -39.4913C462.159 -38.158 454.976 -36.7613 447.809 -35.3013C433.309 -32.3213 418.893 -28.9879 404.559 -25.3013C375.97 -18.0474 347.927 -8.78778 320.639 2.40876C268.209 24.1987 219.209 54.9588 180.209 96.5388C161.005 116.832 144.746 139.722 131.909 164.539C119.092 189.898 110.23 217.069 105.629 245.109C95.8594 303.189 102.379 362.999 115.909 419.929C122.239 446.589 129.079 474.649 144.269 497.859C150.919 508.009 159.269 517.139 169.639 523.549C174.733 526.698 180.207 529.185 185.929 530.949C189.779 532.024 193.837 532.114 197.729 531.209C204.319 529.959 217.849 523.769 222.049 531.929C222.259 532.259 222.869 531.899 222.659 531.489Z" fill="#F2761B"/>
<path d="M131.328 552.599C127.678 545.519 118.328 548.169 112.228 549.599C107.418 550.759 102.478 552.229 97.488 552.159C91.258 552.069 84.6479 548.779 79.2479 545.969C53.3479 532.439 38.938 505.029 29.798 478.439C19.798 449.509 13.138 419.079 8.06797 388.939C2.83795 357.869 0.0678604 326.309 0.857861 294.789C1.67786 263.599 6.12796 232.439 15.3479 202.599C24.3513 173.67 37.7658 146.305 55.1178 121.469C89.7378 71.6588 138.028 32.2689 191.248 3.73885C245.788 -25.4712 305.438 -43.9212 365.788 -56.8512C373.394 -58.4846 381.014 -60.0312 388.648 -61.4912C392.148 -62.1579 395.648 -62.8246 399.148 -63.4912C400.958 -63.8313 402.778 -64.1612 404.588 -64.4912C405.658 -64.6812 407.818 -65.4912 408.908 -65.1612C410.528 -64.6412 412.448 -58.8913 413.248 -57.3012C415.108 -53.6413 416.961 -49.9746 418.808 -46.3012C422.315 -39.3279 425.795 -32.3279 429.248 -25.3013C443.138 2.90877 456.418 31.4487 467.868 60.6987C490.578 118.799 506.108 180.769 501.968 243.559C497.888 305.389 474.898 364.379 442.228 416.559C425.788 442.605 407.246 467.264 386.788 490.289C366.918 512.819 345.648 534.529 322.458 553.669C299.648 572.499 273.788 588.859 244.788 595.859C215.908 602.859 183.308 599.599 158.148 583.009C146.629 575.488 137.372 564.976 131.368 552.599C131.168 552.189 130.558 552.549 130.758 552.959C142.788 578.129 167.978 593.169 194.788 598.099C223.788 603.429 253.048 596.969 279.028 583.719C305.788 570.059 328.958 550.199 350.438 529.399C372.717 507.922 393.436 484.883 412.438 460.459C450.348 411.459 480.968 355.669 495.048 294.959C502.17 264.166 504.734 232.496 502.658 200.959C500.598 169.439 494.188 138.329 485.108 108.109C476.028 77.8887 464.278 48.4888 451.338 19.7088C444.748 5.04878 437.828 -9.47124 430.738 -23.9012C427.298 -30.9079 423.821 -37.9079 420.308 -44.9012C418.568 -48.3812 416.808 -51.8512 415.058 -55.3212L412.468 -60.4412C411.738 -61.8712 411.148 -63.8612 410.158 -65.1213C409.298 -66.2212 409.538 -66.0712 408.028 -65.8212C404.608 -65.2512 401.188 -64.5812 397.768 -63.9512C389.994 -62.5112 382.238 -61.0012 374.498 -59.4212C358.848 -56.2013 343.268 -52.6412 327.808 -48.6412C296.935 -40.8157 266.653 -30.8209 237.188 -18.7312C180.588 4.79885 127.688 38.0088 85.5779 82.8989C64.8427 104.795 47.2877 129.496 33.4279 156.279C19.5925 183.663 10.0253 213.002 5.05792 243.279C-5.49205 305.989 1.54791 370.549 16.1479 432.019C22.9879 460.809 30.368 491.099 46.778 516.159C53.948 527.159 62.958 536.969 74.158 543.889C79.654 547.299 85.5658 549.988 91.7479 551.889C95.8952 553.06 100.272 553.159 104.468 552.179C111.598 550.819 126.208 544.179 130.758 552.969C130.928 553.369 131.538 552.969 131.328 552.599Z" fill="#F2761B"/>
</g>
<defs>
<clipPath id="clip0">
<rect width="495" height="570" fill="white" transform="translate(495 570) rotate(180)"/>
</clipPath>
</defs>
</svg>