<svg xmlns:xlink="http://www.w3.org/1999/xlink" xmlns="http://www.w3.org/2000/svg" class="icon-40 icon-32-sm mr-16 d-none-sm co-primary" width="40"  height="40" ><defs><symbol id="safe-icon" viewBox="0 0 40 40" fill="none" xmlns="http://www.w3.org/2000/svg">
        <circle cx="20" cy="20" r="20" fill="currentColor" opacity="0.1"></circle>
        <path d="M24.8231 28.2651C24.7327 28.2651 24.6592 28.1915 24.6592 28.1012V27.5558V26.7558H23.8592H16.1435H15.3435V27.5558V28.1012C15.3435 28.1915 15.2696 28.2651 15.1787 28.2651C15.0883 28.2651 15.0148 28.1915 15.0148 28.1012V27.5558V26.7558H14.2148H13.2662C12.6046 26.7558 12.0664 26.2175 12.0664 25.556V13.0487C12.0664 12.3871 12.6046 11.8489 13.2662 11.8489H26.7374C27.399 11.8489 27.9372 12.3871 27.9372 13.0487V25.556C27.9372 26.2175 27.399 26.7558 26.7374 26.7558H25.7879H24.9879V27.5558V28.1012C24.9879 28.1915 24.914 28.2651 24.8231 28.2651Z" fill="currentColor"></path>
        <path d="M26.7366 25.9557C26.9571 25.9557 27.1364 25.7764 27.1364 25.5559V13.0486C27.1364 12.8282 26.9571 12.6488 26.7366 12.6488H13.2654C13.045 12.6488 12.8656 12.8282 12.8656 13.0486V25.5559C12.8656 25.7764 13.045 25.9557 13.2654 25.9557H14.214H14.5427H16.1427H23.8584H25.4584H25.7871H26.7366ZM24.8223 29.065C24.2895 29.065 23.8584 28.6339 23.8584 28.1011V27.5557H16.1427V28.1011C16.1427 28.6339 15.7107 29.065 15.1779 29.065C14.6451 29.065 14.214 28.6339 14.214 28.1011V27.5557H13.2654C12.1602 27.5557 11.2656 26.6602 11.2656 25.5559V13.0486C11.2656 11.9443 12.1602 11.0488 13.2654 11.0488H26.7366C27.8409 11.0488 28.7364 11.9443 28.7364 13.0486V25.5559C28.7364 26.6602 27.8409 27.5557 26.7366 27.5557H25.7871V28.1011C25.7871 28.6339 25.3551 29.065 24.8223 29.065Z" fill="currentColor"></path>
        <path d="M19.9655 20.1617C19.4654 20.1617 19.0586 19.7553 19.0586 19.2557C19.0586 18.7561 19.4654 18.3496 19.9655 18.3496C20.4656 18.3496 20.8724 18.7561 20.8724 19.2557C20.8724 19.7553 20.4656 20.1617 19.9655 20.1617Z" fill="white"></path>
        <path d="M19.9655 19.0996C19.879 19.0996 19.8086 19.1696 19.8086 19.2557C19.8086 19.3417 19.879 19.4117 19.9655 19.4117C20.052 19.4117 20.1224 19.3417 20.1224 19.2557C20.1224 19.1696 20.052 19.0996 19.9655 19.0996ZM19.9655 17.5996C20.8806 17.5996 21.6224 18.341 21.6224 19.2557C21.6224 20.1703 20.8806 20.9117 19.9655 20.9117C19.0504 20.9117 18.3086 20.1703 18.3086 19.2557C18.3086 18.341 19.0504 17.5996 19.9655 17.5996Z" fill="white"></path>
        </symbol></defs><use xlink:href="#safe-icon"></use></svg>