<svg xmlns:xlink="http://www.w3.org/1999/xlink" xmlns="http://www.w3.org/2000/svg" class="icon-20" width="20"  height="20" ><defs><symbol id="tw-icon" viewBox="0 0 20 20" fill="none" xmlns="http://www.w3.org/2000/svg">
        <path d="M19.5556 3.881C18.8283 4.2 18.0534 4.41144 17.2456 4.51411C18.0767 4.01789 18.711 3.23811 19.0092 2.29822C18.2343 2.76022 17.3788 3.08656 16.467 3.26867C15.7312 2.48522 14.6826 2 13.5386 2C11.319 2 9.53211 3.80156 9.53211 6.01011C9.53211 6.32789 9.559 6.63344 9.625 6.92433C6.292 6.76178 3.34278 5.16433 1.36156 2.73089C1.01567 3.331 0.812778 4.01789 0.812778 4.75733C0.812778 6.14578 1.52778 7.37656 2.59356 8.08911C1.94944 8.07689 1.31756 7.88989 0.782222 7.59533C0.782222 7.60756 0.782222 7.62344 0.782222 7.63933C0.782222 9.58756 2.17189 11.2058 3.99422 11.5786C3.66789 11.6678 3.31222 11.7106 2.94311 11.7106C2.68644 11.7106 2.42733 11.6959 2.18411 11.6421C2.70356 13.2298 4.17756 14.397 5.93022 14.4349C4.56622 15.5019 2.83433 16.1448 0.959444 16.1448C0.630667 16.1448 0.315333 16.1301 0 16.0898C1.77589 17.235 3.88056 17.8889 6.15022 17.8889C13.5276 17.8889 17.5609 11.7778 17.5609 6.48067C17.5609 6.30344 17.5548 6.13233 17.5462 5.96244C18.3419 5.39778 19.0104 4.69256 19.5556 3.881Z" fill="#121212"></path>
        </symbol></defs><use xlink:href="#tw-icon"></use></svg>